<svg width="904" height="612" viewBox="0 0 904 612" fill="none" xmlns="http://www.w3.org/2000/svg">
<ellipse cx="434.251" cy="227.991" rx="149.231" ry="172.687" transform="rotate(43.4746 434.251 227.991)" fill="white"/>
<ellipse cx="646.143" cy="359.276" rx="168.553" ry="195.661" transform="rotate(53.5708 646.143 359.276)" fill="white"/>
<ellipse cx="229.008" cy="357.742" rx="142.073" ry="195.661" transform="rotate(107.262 229.008 357.742)" fill="white"/>
<ellipse cx="264.297" cy="474.871" rx="69.4238" ry="95.6097" transform="rotate(107.262 264.297 474.871)" fill="white"/>
<ellipse cx="434.25" cy="417.208" rx="149.039" ry="134.338" transform="rotate(-180 434.25 417.208)" fill="white"/>
<path d="M545.34 397.111L540.357 387.375" stroke="#0E2D55" stroke-width="12.1665" stroke-linecap="round"/>
<path d="M589.639 363.445L571.689 359.641" stroke="#0E2D55" stroke-width="12.1665" stroke-linecap="round"/>
<path d="M537.122 366.491C522.434 372.157 506.832 367.898 506.832 367.898L559.299 326.95C559.299 326.95 551.81 360.825 537.122 366.491Z" fill="#0E2D55" stroke="#0E2D55" stroke-width="17.2358" stroke-linecap="round"/>
<path d="M465.362 411.508C465.362 411.508 474.291 379.378 521.111 343.676C567.932 307.974 598.906 311.52 598.906 311.52" stroke="#0E2D55" stroke-width="17.2358" stroke-linecap="round"/>
<path d="M326.914 404.788L330.973 394.632" stroke="#0E2D55" stroke-width="12.1665" stroke-linecap="round"/>
<path d="M279.683 375.373L297.203 369.922" stroke="#0E2D55" stroke-width="12.1665" stroke-linecap="round"/>
<path d="M332.258 373.539C347.408 377.819 362.548 372.132 362.548 372.132L306.512 336.224C306.512 336.224 317.108 369.259 332.258 373.539Z" fill="#0E2D55" stroke="#0E2D55" stroke-width="17.2358" stroke-linecap="round"/>
<path d="M407.882 411.713C407.882 411.713 396.014 380.548 346.086 349.34C296.157 318.131 265.646 324.532 265.646 324.532" stroke="#0E2D55" stroke-width="17.2358" stroke-linecap="round"/>
</svg>
