<svg width="150" height="95" viewBox="0 0 150 95" fill="none" xmlns="http://www.w3.org/2000/svg">
<path d="M51.9443 94.6055C61.6867 94.6054 70.0954 87.8884 74.0203 78.1709C79.2499 84.3901 86.1549 87.6249 92.744 86.0957C99.6637 84.4897 104.569 78.0157 106.306 69.5391C110.549 71.6097 115.473 72.7939 120.724 72.7939C136.663 72.7939 149.583 61.8767 149.582 48.4092C149.58 37.0322 140.358 27.4753 127.886 24.7822C125.609 10.7788 111.612 5.18111e-05 94.6812 0C80.8424 0 68.9642 7.20137 63.8455 17.4785C58.4716 7.73032 46.9153 0.986328 33.5241 0.986328C15.0069 0.986367 -0.00260493 13.8792 -0.000552576 29.7832C0.00136003 44.175 12.2953 56.1005 28.3547 58.2383C27.7985 60.6507 27.4999 63.1886 27.5002 65.8086C27.5022 81.7126 38.4464 94.6055 51.9443 94.6055Z" fill="#055FD2"/>
</svg>
