<svg width="150" height="95" viewBox="0 0 150 95" fill="none" xmlns="http://www.w3.org/2000/svg">
<path d="M52.0371 94.6895C61.7648 94.6894 70.1491 87.9741 74.0539 78.2569C79.2909 84.4811 86.1953 87.7189 92.7749 86.1885C99.6875 84.5805 104.577 78.0964 106.294 69.6075C110.535 71.6776 115.454 72.8613 120.697 72.8614C136.622 72.8614 149.508 61.9341 149.48 48.4542C149.456 37.0681 140.225 27.5037 127.761 24.8068C125.46 10.7893 111.452 -0.000711026 94.5359 -0.000756447C80.7101 -0.000756447 68.8571 7.20702 63.7635 17.4933C58.3756 7.73495 46.8154 0.983638 33.4354 0.983616C14.9354 0.983616 -0.0349396 13.8883 -0.00131486 29.8068C0.0293375 44.2149 12.3414 56.1541 28.3952 58.2901C27.8447 60.7043 27.5522 63.2444 27.5578 65.8663C27.5918 81.7848 38.5517 94.6895 52.0371 94.6895Z" fill="#312783"/>
</svg>
