<svg width="1330" height="642" viewBox="0 0 1330 642" fill="none" xmlns="http://www.w3.org/2000/svg">
<g clip-path="url(#clip0_265_1004)">
<path d="M480.407 485.714H489.598V516.062H446.646V485.714H455.837V508.054H463.526V485.714H472.717V508.054H480.407V485.714ZM523.394 516.062H512.201L505.376 505.37L503.692 507.645V516.062H494.501V485.714H503.692V497.089L511.655 485.714H522.893L511.427 499.819L523.394 516.062ZM538.175 516.609C528.802 516.609 521.567 510.238 521.567 500.911C521.567 491.583 528.802 485.213 538.175 485.213C547.548 485.213 554.783 491.583 554.783 500.911C554.783 510.238 547.548 516.609 538.175 516.609ZM538.175 508.509C542.588 508.509 545.455 505.142 545.455 500.911C545.455 496.679 542.588 493.312 538.175 493.312C533.761 493.312 530.895 496.679 530.895 500.911C530.895 505.142 533.761 508.509 538.175 508.509ZM555.117 516.609V508.509C557.711 508.509 559.622 506.78 560.35 501.002L562.215 485.714H585.921V516.062H576.73V493.722H570.496L569.495 501.684C568.039 513.651 562.17 516.609 555.117 516.609ZM621.501 516.062H611.081L609.989 512.513H599.069L597.977 516.062H587.558L598.751 485.714H610.308L621.501 516.062ZM607.532 504.505L604.529 494.723L601.526 504.505H607.532ZM343.91 557.609C334.537 557.609 327.302 551.238 327.302 541.911C327.302 532.583 334.537 526.213 343.91 526.213C353.283 526.213 360.517 532.583 360.517 541.911C360.517 551.238 353.283 557.609 343.91 557.609ZM343.91 549.509C348.323 549.509 351.19 546.142 351.19 541.911C351.19 537.679 348.323 534.312 343.91 534.312C339.496 534.312 336.63 537.679 336.63 541.911C336.63 546.142 339.496 549.509 343.91 549.509ZM378.837 557.609C369.327 557.609 362.138 551.238 362.138 541.911C362.138 532.538 369.327 526.213 378.837 526.213C386.8 526.213 390.804 530.854 392.624 535.04L384.706 538.726C383.933 536.36 381.567 534.312 378.837 534.312C374.423 534.312 371.466 537.679 371.466 541.911C371.466 546.142 374.423 549.509 378.837 549.509C381.567 549.509 383.933 547.462 384.706 545.096L392.624 548.736C390.849 552.785 386.8 557.609 378.837 557.609ZM418.525 557.062H395.502V526.714H418.525V534.722H404.693V537.725H418.207V545.733H404.693V549.054H418.525V557.062ZM421.06 562.659V549.509C423.79 549.009 425.564 547.78 426.292 542.002L428.158 526.714H451.864V549.054H454.503V562.659H445.312V557.062H430.251V562.659H421.06ZM435.438 542.684C435.119 545.369 434.027 547.462 432.48 549.054H442.673V534.722H436.439L435.438 542.684ZM455.985 557.609V549.509C458.578 549.509 460.489 547.78 461.217 542.002L463.083 526.714H486.789V557.062H477.598V534.722H471.364L470.363 542.684C468.907 554.651 463.037 557.609 455.985 557.609ZM522.369 557.062H511.949L510.857 553.513H499.937L498.845 557.062H488.426L499.619 526.714H511.176L522.369 557.062ZM508.4 545.505L505.397 535.723L502.394 545.505H508.4ZM553.262 557.062H544.071V545.46H533.196V557.062H524.005V526.714H533.196V537.452H544.071V526.714H553.262V557.062ZM567.002 557.062H558.175V526.714H567.366V542.912L577.922 526.714H587.386V557.062H578.195V539.863L567.002 557.062ZM601.537 557.062H591.071L596.577 546.324C594.166 545.141 591.117 542.366 591.117 537.133C591.117 531.446 594.939 526.714 602.037 526.714H618.235V557.062H609.044V547.507H605.723L601.537 557.062ZM603.448 539.499H609.044V534.722H603.448C601.901 534.722 600.445 535.45 600.445 537.088C600.445 538.771 601.901 539.499 603.448 539.499ZM411.405 598.609C402.032 598.609 394.797 592.238 394.797 582.911C394.797 573.583 402.032 567.213 411.405 567.213C420.778 567.213 428.013 573.583 428.013 582.911C428.013 592.238 420.778 598.609 411.405 598.609ZM411.405 590.509C415.818 590.509 418.685 587.142 418.685 582.911C418.685 578.679 415.818 575.312 411.405 575.312C406.991 575.312 404.125 578.679 404.125 582.911C404.125 587.142 406.991 590.509 411.405 590.509ZM431.271 567.714H456.57V575.722H440.463V578.133H447.925C454.75 578.133 458.39 582.638 458.39 588.052C458.39 593.512 454.75 598.062 447.925 598.062H431.271V567.714ZM446.787 586.141H440.463V590.054H446.787C448.061 590.054 449.062 589.417 449.062 588.098C449.062 586.778 448.061 586.141 446.787 586.141ZM459.851 598.609V590.509C462.444 590.509 464.355 588.78 465.083 583.002L466.949 567.714H490.654V598.062H481.463V575.722H475.23L474.229 583.684C472.773 595.651 466.903 598.609 459.851 598.609ZM526.235 598.062H515.815L514.723 594.513H503.803L502.711 598.062H492.291L503.484 567.714H515.042L526.235 598.062ZM512.266 586.505L509.263 576.723L506.26 586.505H512.266ZM556.764 598.062H545.57L538.745 587.37L537.062 589.645V598.062H527.871V567.714H537.062V579.089L545.024 567.714H556.263L544.797 581.819L556.764 598.062ZM571.545 598.609C562.172 598.609 554.937 592.238 554.937 582.911C554.937 573.583 562.172 567.213 571.545 567.213C580.918 567.213 588.152 573.583 588.152 582.911C588.152 592.238 580.918 598.609 571.545 598.609ZM571.545 590.509C575.958 590.509 578.825 587.142 578.825 582.911C578.825 578.679 575.958 575.312 571.545 575.312C567.131 575.312 564.265 578.679 564.265 582.911C564.265 587.142 567.131 590.509 571.545 590.509ZM610.476 598.062H591.411V567.714H609.839C616.118 567.714 618.848 571.9 618.848 575.449C618.848 579.225 616.619 581.773 613.661 582.41C616.937 582.911 619.44 585.914 619.44 589.827C619.44 594.058 616.573 598.062 610.476 598.062ZM607.7 578.907C608.656 578.907 609.52 578.179 609.52 577.087C609.52 576.04 608.656 575.358 607.7 575.358H600.602V578.907H607.7ZM607.973 590.418C609.293 590.418 610.112 589.645 610.112 588.507C610.112 587.415 609.293 586.551 607.973 586.551H600.602V590.418H607.973Z" fill="#C3FB4F"/>
<path d="M876.375 180.595H885.566V210.943H842.613V180.595H851.804V202.935H859.494V180.595H868.685V202.935H876.375V180.595ZM919.361 210.943H908.168L901.343 200.251L899.66 202.526V210.943H890.469V180.595H899.66V191.97L907.622 180.595H918.861L907.395 194.7L919.361 210.943ZM934.143 211.489C924.769 211.489 917.535 205.119 917.535 195.792C917.535 186.464 924.769 180.094 934.143 180.094C943.516 180.094 950.75 186.464 950.75 195.792C950.75 205.119 943.516 211.489 934.143 211.489ZM934.143 203.39C938.556 203.39 941.423 200.023 941.423 195.792C941.423 191.56 938.556 188.193 934.143 188.193C929.729 188.193 926.862 191.56 926.862 195.792C926.862 200.023 929.729 203.39 934.143 203.39ZM951.085 211.489V203.39C953.678 203.39 955.589 201.661 956.317 195.883L958.183 180.595H981.888V210.943H972.697V188.603H966.464L965.463 196.565C964.007 208.532 958.137 211.489 951.085 211.489ZM1017.47 210.943H1007.05L1005.96 207.394H995.037L993.945 210.943H983.525L994.718 180.595H1006.28L1017.47 210.943ZM1003.5 199.386L1000.5 189.604L997.494 199.386H1003.5ZM915.569 252.489C906.196 252.489 898.962 246.119 898.962 236.792C898.962 227.464 906.196 221.094 915.569 221.094C924.942 221.094 932.177 227.464 932.177 236.792C932.177 246.119 924.942 252.489 915.569 252.489ZM915.569 244.39C919.983 244.39 922.849 241.023 922.849 236.792C922.849 232.56 919.983 229.193 915.569 229.193C911.156 229.193 908.289 232.56 908.289 236.792C908.289 241.023 911.156 244.39 915.569 244.39ZM950.496 252.489C940.987 252.489 933.798 246.119 933.798 236.792C933.798 227.419 940.987 221.094 950.496 221.094C958.459 221.094 962.463 225.735 964.283 229.921L956.366 233.607C955.592 231.241 953.226 229.193 950.496 229.193C946.083 229.193 943.125 232.56 943.125 236.792C943.125 241.023 946.083 244.39 950.496 244.39C953.226 244.39 955.592 242.343 956.366 239.977L964.283 243.617C962.508 247.666 958.459 252.489 950.496 252.489ZM990.185 251.943H967.162V221.595H990.185V229.603H976.353V232.606H989.866V240.614H976.353V243.935H990.185V251.943ZM992.719 257.54V244.39C995.449 243.89 997.224 242.661 997.952 236.883L999.817 221.595H1023.52V243.935H1026.16V257.54H1016.97V251.943H1001.91V257.54H992.719ZM1007.1 237.565C1006.78 240.25 1005.69 242.343 1004.14 243.935H1014.33V229.603H1008.1L1007.1 237.565ZM1027.64 252.489V244.39C1030.24 244.39 1032.15 242.661 1032.88 236.883L1034.74 221.595H1058.45V251.943H1049.26V229.603H1043.02L1042.02 237.565C1040.57 249.532 1034.7 252.489 1027.64 252.489ZM1094.03 251.943H1083.61L1082.52 248.394H1071.6L1070.5 251.943H1060.08L1071.28 221.595H1082.84L1094.03 251.943ZM1080.06 240.386L1077.06 230.604L1074.05 240.386H1080.06ZM1124.92 251.943H1115.73V240.341H1104.86V251.943H1095.66V221.595H1104.86V232.333H1115.73V221.595H1124.92V251.943ZM1138.66 251.943H1129.83V221.595H1139.03V237.793L1149.58 221.595H1159.05V251.943H1149.85V234.744L1138.66 251.943ZM1173.2 251.943H1162.73L1168.24 241.205C1165.82 240.022 1162.78 237.247 1162.78 232.014C1162.78 226.327 1166.6 221.595 1173.7 221.595H1189.89V251.943H1180.7V242.388H1177.38L1173.2 251.943ZM1175.11 234.38H1180.7V229.603H1175.11C1173.56 229.603 1172.1 230.331 1172.1 231.969C1172.1 233.652 1173.56 234.38 1175.11 234.38ZM996.75 293.489C987.377 293.489 980.142 287.119 980.142 277.792C980.142 268.464 987.377 262.094 996.75 262.094C1006.12 262.094 1013.36 268.464 1013.36 277.792C1013.36 287.119 1006.12 293.489 996.75 293.489ZM996.75 285.39C1001.16 285.39 1004.03 282.023 1004.03 277.792C1004.03 273.56 1001.16 270.193 996.75 270.193C992.336 270.193 989.47 273.56 989.47 277.792C989.47 282.023 992.336 285.39 996.75 285.39ZM1016.62 262.595H1041.91V270.603H1025.81V273.014H1033.27C1040.09 273.014 1043.73 277.519 1043.73 282.933C1043.73 288.393 1040.09 292.943 1033.27 292.943H1016.62V262.595ZM1032.13 281.022H1025.81V284.935H1032.13C1033.41 284.935 1034.41 284.298 1034.41 282.979C1034.41 281.659 1033.41 281.022 1032.13 281.022ZM1045.2 293.489V285.39C1047.79 285.39 1049.7 283.661 1050.43 277.883L1052.29 262.595H1076V292.943H1066.81V270.603H1060.57L1059.57 278.565C1058.12 290.532 1052.25 293.489 1045.2 293.489ZM1111.58 292.943H1101.16L1100.07 289.394H1089.15L1088.06 292.943H1077.64L1088.83 262.595H1100.39L1111.58 292.943ZM1097.61 281.386L1094.61 271.604L1091.6 281.386H1097.61ZM1142.11 292.943H1130.92L1124.09 282.251L1122.41 284.526V292.943H1113.22V262.595H1122.41V273.97L1130.37 262.595H1141.61L1130.14 276.7L1142.11 292.943ZM1156.89 293.489C1147.52 293.489 1140.28 287.119 1140.28 277.792C1140.28 268.464 1147.52 262.094 1156.89 262.094C1166.26 262.094 1173.5 268.464 1173.5 277.792C1173.5 287.119 1166.26 293.489 1156.89 293.489ZM1156.89 285.39C1161.3 285.39 1164.17 282.023 1164.17 277.792C1164.17 273.56 1161.3 270.193 1156.89 270.193C1152.48 270.193 1149.61 273.56 1149.61 277.792C1149.61 282.023 1152.48 285.39 1156.89 285.39ZM1195.82 292.943H1176.76V262.595H1195.18C1201.46 262.595 1204.19 266.781 1204.19 270.33C1204.19 274.106 1201.96 276.654 1199.01 277.291C1202.28 277.792 1204.78 280.795 1204.78 284.708C1204.78 288.939 1201.92 292.943 1195.82 292.943ZM1193.05 273.788C1194 273.788 1194.87 273.06 1194.87 271.968C1194.87 270.921 1194 270.239 1193.05 270.239H1185.95V273.788H1193.05ZM1193.32 285.299C1194.64 285.299 1195.46 284.526 1195.46 283.388C1195.46 282.296 1194.64 281.432 1193.32 281.432H1185.95V285.299H1193.32Z" fill="#C3FB4F"/>
<path d="M682.332 14.6513H691.523V45H648.57V14.6513H657.761V36.9919H665.451V14.6513H674.642V36.9919H682.332V14.6513ZM725.318 45H714.125L707.3 34.3074L705.617 36.5824V45H696.426V14.6513H705.617V26.0264L713.579 14.6513H724.818L713.352 28.7564L725.318 45ZM740.1 45.546C730.726 45.546 723.492 39.176 723.492 29.8484C723.492 20.5208 730.726 14.1508 740.1 14.1508C749.473 14.1508 756.707 20.5208 756.707 29.8484C756.707 39.176 749.473 45.546 740.1 45.546ZM740.1 37.4469C744.513 37.4469 747.38 34.0799 747.38 29.8484C747.38 25.6169 744.513 22.2498 740.1 22.2498C735.686 22.2498 732.82 25.6169 732.82 29.8484C732.82 34.0799 735.686 37.4469 740.1 37.4469ZM757.042 45.546V37.4469C759.635 37.4469 761.546 35.7179 762.274 29.9394L764.14 14.6513H787.845V45H778.654V22.6593H772.421L771.42 30.6219C769.964 42.5885 764.094 45.546 757.042 45.546ZM823.426 45H813.006L811.914 41.451H800.994L799.902 45H789.482L800.675 14.6513H812.233L823.426 45ZM809.457 33.4429L806.454 23.6603L803.451 33.4429H809.457ZM721.526 86.546C712.153 86.546 704.919 80.176 704.919 70.8484C704.919 61.5208 712.153 55.1508 721.526 55.1508C730.899 55.1508 738.134 61.5208 738.134 70.8484C738.134 80.176 730.899 86.546 721.526 86.546ZM721.526 78.4469C725.94 78.4469 728.806 75.0799 728.806 70.8484C728.806 66.6169 725.94 63.2498 721.526 63.2498C717.113 63.2498 714.246 66.6169 714.246 70.8484C714.246 75.0799 717.113 78.4469 721.526 78.4469ZM756.453 86.546C746.944 86.546 739.755 80.176 739.755 70.8484C739.755 61.4753 746.944 55.1508 756.453 55.1508C764.416 55.1508 768.42 59.7918 770.24 63.9778L762.323 67.6634C761.549 65.2973 759.183 63.2498 756.453 63.2498C752.04 63.2498 749.082 66.6169 749.082 70.8484C749.082 75.0799 752.04 78.4469 756.453 78.4469C759.183 78.4469 761.549 76.3994 762.323 74.0334L770.24 77.6734C768.465 81.723 764.416 86.546 756.453 86.546ZM796.142 86H773.119V55.6513H796.142V63.6593H782.31V66.6624H795.823V74.6704H782.31V77.9919H796.142V86ZM798.676 91.5965V78.4469C801.406 77.9464 803.181 76.7179 803.909 70.9394L805.774 55.6513H829.48V77.9919H832.119V91.5965H822.928V86H807.867V91.5965H798.676ZM813.054 71.6219C812.736 74.3064 811.644 76.3994 810.097 77.9919H820.289V63.6593H814.055L813.054 71.6219ZM833.601 86.546V78.4469C836.195 78.4469 838.106 76.7179 838.834 70.9394L840.699 55.6513H864.405V86H855.214V63.6593H848.98L847.979 71.6219C846.523 83.5885 840.654 86.546 833.601 86.546ZM899.985 86H889.566L888.474 82.451H877.554L876.462 86H866.042L877.235 55.6513H888.792L899.985 86ZM886.017 74.4429L883.014 64.6603L880.011 74.4429H886.017ZM930.878 86H921.687V74.3974H910.813V86H901.622V55.6513H910.813V66.3894H921.687V55.6513H930.878V86ZM944.618 86H935.791V55.6513H944.982V71.8494L955.538 55.6513H965.002V86H955.811V68.8009L944.618 86ZM979.153 86H968.688L974.193 75.2619C971.782 74.0789 968.733 71.3034 968.733 66.0709C968.733 60.3833 972.555 55.6513 979.654 55.6513H995.852V86H986.661V76.4449H983.339L979.153 86ZM981.064 68.4369H986.661V63.6593H981.064C979.517 63.6593 978.061 64.3873 978.061 66.0254C978.061 67.7089 979.517 68.4369 981.064 68.4369ZM802.707 127.546C793.334 127.546 786.099 121.176 786.099 111.848C786.099 102.521 793.334 96.1508 802.707 96.1508C812.08 96.1508 819.315 102.521 819.315 111.848C819.315 121.176 812.08 127.546 802.707 127.546ZM802.707 119.447C807.12 119.447 809.987 116.08 809.987 111.848C809.987 107.617 807.12 104.25 802.707 104.25C798.293 104.25 795.427 107.617 795.427 111.848C795.427 116.08 798.293 119.447 802.707 119.447ZM822.574 96.6513H847.872V104.659H831.765V107.071H839.227C846.052 107.071 849.692 111.575 849.692 116.99C849.692 122.45 846.052 127 839.227 127H822.574V96.6513ZM838.089 115.079H831.765V118.992H838.089C839.363 118.992 840.364 118.355 840.364 117.035C840.364 115.716 839.363 115.079 838.089 115.079ZM851.153 127.546V119.447C853.746 119.447 855.657 117.718 856.385 111.939L858.251 96.6513H881.956V127H872.765V104.659H866.532L865.531 112.622C864.075 124.588 858.205 127.546 851.153 127.546ZM917.537 127H907.117L906.025 123.451H895.105L894.013 127H883.593L894.787 96.6513H906.344L917.537 127ZM903.568 115.443L900.565 105.66L897.562 115.443H903.568ZM948.066 127H936.873L930.047 116.307L928.364 118.582V127H919.173V96.6513H928.364V108.026L936.327 96.6513H947.565L936.099 110.756L948.066 127ZM962.847 127.546C953.474 127.546 946.239 121.176 946.239 111.848C946.239 102.521 953.474 96.1508 962.847 96.1508C972.22 96.1508 979.454 102.521 979.454 111.848C979.454 121.176 972.22 127.546 962.847 127.546ZM962.847 119.447C967.26 119.447 970.127 116.08 970.127 111.848C970.127 107.617 967.26 104.25 962.847 104.25C958.433 104.25 955.567 107.617 955.567 111.848C955.567 116.08 958.433 119.447 962.847 119.447ZM1001.78 127H982.713V96.6513H1001.14C1007.42 96.6513 1010.15 100.837 1010.15 104.386C1010.15 108.163 1007.92 110.711 1004.96 111.348C1008.24 111.848 1010.74 114.851 1010.74 118.764C1010.74 122.996 1007.88 127 1001.78 127ZM999.003 107.844C999.958 107.844 1000.82 107.116 1000.82 106.024C1000.82 104.978 999.958 104.295 999.003 104.295H991.904V107.844H999.003ZM999.276 119.356C1000.6 119.356 1001.41 118.582 1001.41 117.445C1001.41 116.353 1000.6 115.488 999.276 115.488H991.904V119.356H999.276Z" fill="#C3FB4F"/>
<path d="M1140.44 305.05H1149.63V335.398H1106.68V305.05H1115.87V327.39H1123.56V305.05H1132.75V327.39H1140.44V305.05ZM1183.43 335.398H1172.23L1165.41 324.706L1163.73 326.981V335.398H1154.53V305.05H1163.73V316.425L1171.69 305.05H1182.93L1171.46 319.155L1183.43 335.398ZM1198.21 335.944C1188.84 335.944 1181.6 329.574 1181.6 320.247C1181.6 310.919 1188.84 304.549 1198.21 304.549C1207.58 304.549 1214.82 310.919 1214.82 320.247C1214.82 329.574 1207.58 335.944 1198.21 335.944ZM1198.21 327.845C1202.62 327.845 1205.49 324.478 1205.49 320.247C1205.49 316.015 1202.62 312.648 1198.21 312.648C1193.79 312.648 1190.93 316.015 1190.93 320.247C1190.93 324.478 1193.79 327.845 1198.21 327.845ZM1215.15 335.944V327.845C1217.74 327.845 1219.66 326.116 1220.38 320.338L1222.25 305.05H1245.95V335.398H1236.76V313.058H1230.53L1229.53 321.02C1228.07 332.987 1222.2 335.944 1215.15 335.944ZM1281.53 335.398H1271.11L1270.02 331.849H1259.1L1258.01 335.398H1247.59L1258.78 305.05H1270.34L1281.53 335.398ZM1267.57 323.841L1264.56 314.059L1261.56 323.841H1267.57ZM1052.07 376.944C1042.69 376.944 1035.46 370.574 1035.46 361.247C1035.46 351.919 1042.69 345.549 1052.07 345.549C1061.44 345.549 1068.67 351.919 1068.67 361.247C1068.67 370.574 1061.44 376.944 1052.07 376.944ZM1052.07 368.845C1056.48 368.845 1059.35 365.478 1059.35 361.247C1059.35 357.015 1056.48 353.648 1052.07 353.648C1047.65 353.648 1044.79 357.015 1044.79 361.247C1044.79 365.478 1047.65 368.845 1052.07 368.845ZM1086.99 376.944C1077.48 376.944 1070.29 370.574 1070.29 361.247C1070.29 351.874 1077.48 345.549 1086.99 345.549C1094.96 345.549 1098.96 350.19 1100.78 354.376L1092.86 358.062C1092.09 355.696 1089.72 353.648 1086.99 353.648C1082.58 353.648 1079.62 357.015 1079.62 361.247C1079.62 365.478 1082.58 368.845 1086.99 368.845C1089.72 368.845 1092.09 366.798 1092.86 364.432L1100.78 368.072C1099 372.121 1094.96 376.944 1086.99 376.944ZM1126.68 376.398H1103.66V346.05H1126.68V354.058H1112.85V357.061H1126.36V365.069H1112.85V368.39H1126.68V376.398ZM1129.22 381.995V368.845C1131.95 368.345 1133.72 367.116 1134.45 361.338L1136.31 346.05H1160.02V368.39H1162.66V381.995H1153.47V376.398H1138.41V381.995H1129.22ZM1143.59 362.02C1143.27 364.705 1142.18 366.798 1140.64 368.39H1150.83V354.058H1144.59L1143.59 362.02ZM1164.14 376.944V368.845C1166.73 368.845 1168.64 367.116 1169.37 361.338L1171.24 346.05H1194.94V376.398H1185.75V354.058H1179.52L1178.52 362.02C1177.06 373.987 1171.19 376.944 1164.14 376.944ZM1230.52 376.398H1220.1L1219.01 372.849H1208.09L1207 376.398H1196.58L1207.77 346.05H1219.33L1230.52 376.398ZM1216.56 364.841L1213.55 355.059L1210.55 364.841H1216.56ZM1261.42 376.398H1252.23V364.796H1241.35V376.398H1232.16V346.05H1241.35V356.788H1252.23V346.05H1261.42V376.398ZM1275.16 376.398H1266.33V346.05H1275.52V362.248L1286.08 346.05H1295.54V376.398H1286.35V359.199L1275.16 376.398ZM1309.69 376.398H1299.23L1304.73 365.66C1302.32 364.477 1299.27 361.702 1299.27 356.469C1299.27 350.782 1303.09 346.05 1310.19 346.05H1326.39V376.398H1317.2V366.843H1313.88L1309.69 376.398ZM1311.6 358.835H1317.2V354.058H1311.6C1310.06 354.058 1308.6 354.786 1308.6 356.424C1308.6 358.107 1310.06 358.835 1311.6 358.835ZM994.079 417.944C984.706 417.944 977.471 411.574 977.471 402.247C977.471 392.919 984.706 386.549 994.079 386.549C1003.45 386.549 1010.69 392.919 1010.69 402.247C1010.69 411.574 1003.45 417.944 994.079 417.944ZM994.079 409.845C998.493 409.845 1001.36 406.478 1001.36 402.247C1001.36 398.015 998.493 394.648 994.079 394.648C989.665 394.648 986.799 398.015 986.799 402.247C986.799 406.478 989.665 409.845 994.079 409.845ZM1013.95 387.05H1039.24V395.058H1023.14V397.469H1030.6C1037.42 397.469 1041.06 401.974 1041.06 407.388C1041.06 412.848 1037.42 417.398 1030.6 417.398H1013.95V387.05ZM1029.46 405.477H1023.14V409.39H1029.46C1030.74 409.39 1031.74 408.753 1031.74 407.434C1031.74 406.114 1030.74 405.477 1029.46 405.477ZM1042.52 417.944V409.845C1045.12 409.845 1047.03 408.116 1047.76 402.338L1049.62 387.05H1073.33V417.398H1064.14V395.058H1057.9L1056.9 403.02C1055.45 414.987 1049.58 417.944 1042.52 417.944ZM1108.91 417.398H1098.49L1097.4 413.849H1086.48L1085.39 417.398H1074.97L1086.16 387.05H1097.72L1108.91 417.398ZM1094.94 405.841L1091.94 396.059L1088.93 405.841H1094.94ZM1139.44 417.398H1128.24L1121.42 406.706L1119.74 408.981V417.398H1110.54V387.05H1119.74V398.425L1127.7 387.05H1138.94L1127.47 401.155L1139.44 417.398ZM1154.22 417.944C1144.85 417.944 1137.61 411.574 1137.61 402.247C1137.61 392.919 1144.85 386.549 1154.22 386.549C1163.59 386.549 1170.83 392.919 1170.83 402.247C1170.83 411.574 1163.59 417.944 1154.22 417.944ZM1154.22 409.845C1158.63 409.845 1161.5 406.478 1161.5 402.247C1161.5 398.015 1158.63 394.648 1154.22 394.648C1149.81 394.648 1146.94 398.015 1146.94 402.247C1146.94 406.478 1149.81 409.845 1154.22 409.845ZM1193.15 417.398H1174.09V387.05H1192.51C1198.79 387.05 1201.52 391.236 1201.52 394.785C1201.52 398.561 1199.29 401.109 1196.34 401.746C1199.61 402.247 1202.11 405.25 1202.11 409.163C1202.11 413.394 1199.25 417.398 1193.15 417.398ZM1190.37 398.243C1191.33 398.243 1192.19 397.515 1192.19 396.423C1192.19 395.376 1191.33 394.694 1190.37 394.694H1183.28V398.243H1190.37ZM1190.65 409.754C1191.97 409.754 1192.79 408.981 1192.79 407.843C1192.79 406.751 1191.97 405.887 1190.65 405.887H1183.28V409.754H1190.65Z" fill="#C3FB4F"/>
<path d="M446.785 97.622H455.976V127.971H413.024V97.622H422.215V119.963H429.904V97.622H439.095V119.963H446.785V97.622ZM489.772 127.971H478.579L471.754 117.278L470.07 119.553V127.971H460.879V97.622H470.07V108.997L478.033 97.622H489.271L477.805 111.727L489.772 127.971ZM504.553 128.517C495.18 128.517 487.945 122.147 487.945 112.819C487.945 103.492 495.18 97.1215 504.553 97.1215C513.926 97.1215 521.161 103.492 521.161 112.819C521.161 122.147 513.926 128.517 504.553 128.517ZM504.553 120.418C508.967 120.418 511.833 117.051 511.833 112.819C511.833 108.588 508.967 105.221 504.553 105.221C500.139 105.221 497.273 108.588 497.273 112.819C497.273 117.051 500.139 120.418 504.553 120.418ZM521.495 128.517V120.418C524.089 120.418 526 118.689 526.728 112.91L528.593 97.622H552.299V127.971H543.108V105.63H536.874L535.873 113.593C534.417 125.559 528.548 128.517 521.495 128.517ZM587.879 127.971H577.459L576.367 124.422H565.447L564.355 127.971H553.936L565.129 97.622H576.686L587.879 127.971ZM573.91 116.414L570.907 106.631L567.904 116.414H573.91ZM393.202 169.517C383.828 169.517 376.594 163.147 376.594 153.819C376.594 144.492 383.828 138.121 393.202 138.121C402.575 138.121 409.809 144.492 409.809 153.819C409.809 163.147 402.575 169.517 393.202 169.517ZM393.202 161.418C397.615 161.418 400.482 158.051 400.482 153.819C400.482 149.588 397.615 146.221 393.202 146.221C388.788 146.221 385.922 149.588 385.922 153.819C385.922 158.051 388.788 161.418 393.202 161.418ZM428.129 169.517C418.619 169.517 411.43 163.147 411.43 153.819C411.43 144.446 418.619 138.121 428.129 138.121C436.091 138.121 440.095 142.763 441.915 146.949L433.998 150.634C433.225 148.268 430.859 146.221 428.129 146.221C423.715 146.221 420.758 149.588 420.758 153.819C420.758 158.051 423.715 161.418 428.129 161.418C430.859 161.418 433.225 159.37 433.998 157.004L441.915 160.644C440.141 164.694 436.091 169.517 428.129 169.517ZM467.817 168.971H444.794V138.622H467.817V146.63H453.985V149.633H467.499V157.641H453.985V160.963H467.817V168.971ZM470.352 174.567V161.418C473.082 160.917 474.856 159.689 475.584 153.91L477.45 138.622H501.155V160.963H503.794V174.567H494.603V168.971H479.543V174.567H470.352ZM484.73 154.593C484.411 157.277 483.319 159.37 481.772 160.963H491.964V146.63H485.731L484.73 154.593ZM505.277 169.517V161.418C507.87 161.418 509.781 159.689 510.509 153.91L512.375 138.622H536.08V168.971H526.889V146.63H520.656L519.655 154.593C518.199 166.559 512.329 169.517 505.277 169.517ZM571.661 168.971H561.241L560.149 165.422H549.229L548.137 168.971H537.717L548.91 138.622H560.468L571.661 168.971ZM557.692 157.414L554.689 147.631L551.686 157.414H557.692ZM602.554 168.971H593.363V157.368H582.488V168.971H573.297V138.622H582.488V149.36H593.363V138.622H602.554V168.971ZM616.294 168.971H607.467V138.622H616.658V154.82L627.214 138.622H636.678V168.971H627.487V151.772L616.294 168.971ZM650.828 168.971H640.363L645.869 158.233C643.457 157.05 640.409 154.274 640.409 149.042C640.409 143.354 644.231 138.622 651.329 138.622H667.527V168.971H658.336V159.416H655.014L650.828 168.971ZM652.739 151.408H658.336V146.63H652.739C651.192 146.63 649.736 147.358 649.736 148.996C649.736 150.68 651.192 151.408 652.739 151.408ZM323.618 210.517C314.245 210.517 307.01 204.147 307.01 194.819C307.01 185.492 314.245 179.121 323.618 179.121C332.991 179.121 340.226 185.492 340.226 194.819C340.226 204.147 332.991 210.517 323.618 210.517ZM323.618 202.418C328.032 202.418 330.898 199.051 330.898 194.819C330.898 190.588 328.032 187.221 323.618 187.221C319.205 187.221 316.338 190.588 316.338 194.819C316.338 199.051 319.205 202.418 323.618 202.418ZM343.485 179.622H368.783V187.63H352.676V190.042H360.138C366.963 190.042 370.603 194.546 370.603 199.961C370.603 205.421 366.963 209.971 360.138 209.971H343.485V179.622ZM359 198.05H352.676V201.963H359C360.274 201.963 361.275 201.326 361.275 200.006C361.275 198.687 360.274 198.05 359 198.05ZM372.064 210.517V202.418C374.657 202.418 376.568 200.689 377.296 194.91L379.162 179.622H402.868V209.971H393.676V187.63H387.443L386.442 195.593C384.986 207.559 379.116 210.517 372.064 210.517ZM438.448 209.971H428.028L426.936 206.422H416.016L414.924 209.971H404.504L415.698 179.622H427.255L438.448 209.971ZM424.479 198.414L421.476 188.631L418.473 198.414H424.479ZM468.977 209.971H457.784L450.959 199.278L449.275 201.553V209.971H440.084V179.622H449.275V190.997L457.238 179.622H468.476L457.01 193.727L468.977 209.971ZM483.758 210.517C474.385 210.517 467.15 204.147 467.15 194.819C467.15 185.492 474.385 179.121 483.758 179.121C493.131 179.121 500.366 185.492 500.366 194.819C500.366 204.147 493.131 210.517 483.758 210.517ZM483.758 202.418C488.171 202.418 491.038 199.051 491.038 194.819C491.038 190.588 488.171 187.221 483.758 187.221C479.344 187.221 476.478 190.588 476.478 194.819C476.478 199.051 479.344 202.418 483.758 202.418ZM522.689 209.971H503.624V179.622H522.052C528.331 179.622 531.061 183.808 531.061 187.357C531.061 191.134 528.832 193.682 525.874 194.319C529.15 194.819 531.653 197.822 531.653 201.735C531.653 205.967 528.786 209.971 522.689 209.971ZM519.914 190.815C520.869 190.815 521.734 190.087 521.734 188.995C521.734 187.949 520.869 187.266 519.914 187.266H512.816V190.815H519.914ZM520.187 202.327C521.506 202.327 522.325 201.553 522.325 200.416C522.325 199.324 521.506 198.459 520.187 198.459H512.816V202.327H520.187Z" fill="#C3FB4F"/>
<path d="M635.488 97.622H644.679V127.971H601.727V97.622H610.918V119.963H618.607V97.622H627.798V119.963H635.488V97.622ZM678.475 127.971H667.282L660.456 117.278L658.773 119.553V127.971H649.582V97.622H658.773V108.997L666.736 97.622H677.974L666.508 111.727L678.475 127.971ZM693.256 128.517C683.883 128.517 676.648 122.147 676.648 112.819C676.648 103.492 683.883 97.1215 693.256 97.1215C702.629 97.1215 709.863 103.492 709.863 112.819C709.863 122.147 702.629 128.517 693.256 128.517ZM693.256 120.418C697.669 120.418 700.536 117.051 700.536 112.819C700.536 108.588 697.669 105.221 693.256 105.221C688.842 105.221 685.976 108.588 685.976 112.819C685.976 117.051 688.842 120.418 693.256 120.418ZM710.198 128.517V120.418C712.791 120.418 714.702 118.689 715.43 112.91L717.296 97.622H741.002V127.971H731.811V105.63H725.577L724.576 113.593C723.12 125.559 717.25 128.517 710.198 128.517ZM776.582 127.971H766.162L765.07 124.422H754.15L753.058 127.971H742.639L753.832 97.622H765.389L776.582 127.971ZM762.613 116.414L759.61 106.631L756.607 116.414H762.613ZM697.877 169.517C688.504 169.517 681.269 163.147 681.269 153.819C681.269 144.492 688.504 138.121 697.877 138.121C707.25 138.121 714.485 144.492 714.485 153.819C714.485 163.147 707.25 169.517 697.877 169.517ZM697.877 161.418C702.29 161.418 705.157 158.051 705.157 153.819C705.157 149.588 702.29 146.221 697.877 146.221C693.463 146.221 690.597 149.588 690.597 153.819C690.597 158.051 693.463 161.418 697.877 161.418ZM732.804 169.517C723.295 169.517 716.106 163.147 716.106 153.819C716.106 144.446 723.295 138.121 732.804 138.121C740.767 138.121 744.771 142.763 746.591 146.949L738.674 150.634C737.9 148.268 735.534 146.221 732.804 146.221C728.391 146.221 725.433 149.588 725.433 153.819C725.433 158.051 728.391 161.418 732.804 161.418C735.534 161.418 737.9 159.37 738.674 157.004L746.591 160.644C744.816 164.694 740.767 169.517 732.804 169.517ZM772.493 168.971H749.469V138.622H772.493V146.63H758.66V149.633H772.174V157.641H758.66V160.963H772.493V168.971ZM775.027 174.567V161.418C777.757 160.917 779.532 159.689 780.26 153.91L782.125 138.622H805.831V160.963H808.47V174.567H799.279V168.971H784.218V174.567H775.027ZM789.405 154.593C789.087 157.277 787.995 159.37 786.448 160.963H796.64V146.63H790.406L789.405 154.593ZM809.952 169.517V161.418C812.546 161.418 814.457 159.689 815.185 153.91L817.05 138.622H840.756V168.971H831.565V146.63H825.331L824.33 154.593C822.874 166.559 817.005 169.517 809.952 169.517ZM876.336 168.971H865.916L864.824 165.422H853.904L852.812 168.971H842.393L853.586 138.622H865.143L876.336 168.971ZM862.367 157.414L859.364 147.631L856.361 157.414H862.367ZM907.229 168.971H898.038V157.368H887.163V168.971H877.972V138.622H887.163V149.36H898.038V138.622H907.229V168.971ZM920.969 168.971H912.142V138.622H921.333V154.82L931.889 138.622H941.353V168.971H932.162V151.772L920.969 168.971ZM955.504 168.971H945.039L950.544 158.233C948.133 157.05 945.084 154.274 945.084 149.042C945.084 143.354 948.906 138.622 956.004 138.622H972.202V168.971H963.011V159.416H959.69L955.504 168.971ZM957.415 151.408H963.011V146.63H957.415C955.868 146.63 954.412 147.358 954.412 148.996C954.412 150.68 955.868 151.408 957.415 151.408ZM639.891 210.517C630.518 210.517 623.283 204.147 623.283 194.819C623.283 185.492 630.518 179.121 639.891 179.121C649.264 179.121 656.498 185.492 656.498 194.819C656.498 204.147 649.264 210.517 639.891 210.517ZM639.891 202.418C644.304 202.418 647.171 199.051 647.171 194.819C647.171 190.588 644.304 187.221 639.891 187.221C635.477 187.221 632.611 190.588 632.611 194.819C632.611 199.051 635.477 202.418 639.891 202.418ZM659.757 179.622H685.055V187.63H668.948V190.042H676.41C683.235 190.042 686.875 194.546 686.875 199.961C686.875 205.421 683.235 209.971 676.41 209.971H659.757V179.622ZM675.273 198.05H668.948V201.963H675.273C676.547 201.963 677.548 201.326 677.548 200.006C677.548 198.687 676.547 198.05 675.273 198.05ZM688.336 210.517V202.418C690.93 202.418 692.841 200.689 693.569 194.91L695.434 179.622H719.14V209.971H709.949V187.63H703.716L702.715 195.593C701.259 207.559 695.389 210.517 688.336 210.517ZM754.72 209.971H744.301L743.209 206.422H732.289L731.197 209.971H720.777L731.97 179.622H743.527L754.72 209.971ZM740.752 198.414L737.749 188.631L734.746 198.414H740.752ZM785.249 209.971H774.056L767.231 199.278L765.548 201.553V209.971H756.357V179.622H765.548V190.997L773.51 179.622H784.749L773.283 193.727L785.249 209.971ZM800.031 210.517C790.657 210.517 783.423 204.147 783.423 194.819C783.423 185.492 790.657 179.121 800.031 179.121C809.404 179.121 816.638 185.492 816.638 194.819C816.638 204.147 809.404 210.517 800.031 210.517ZM800.031 202.418C804.444 202.418 807.311 199.051 807.311 194.819C807.311 190.588 804.444 187.221 800.031 187.221C795.617 187.221 792.75 190.588 792.75 194.819C792.75 199.051 795.617 202.418 800.031 202.418ZM838.962 209.971H819.897V179.622H838.325C844.604 179.622 847.334 183.808 847.334 187.357C847.334 191.134 845.104 193.682 842.147 194.319C845.423 194.819 847.925 197.822 847.925 201.735C847.925 205.967 845.059 209.971 838.962 209.971ZM836.186 190.815C837.142 190.815 838.006 190.087 838.006 188.995C838.006 187.949 837.142 187.266 836.186 187.266H829.088V190.815H836.186ZM836.459 202.327C837.779 202.327 838.598 201.553 838.598 200.416C838.598 199.324 837.779 198.459 836.459 198.459H829.088V202.327H836.459Z" fill="#C3FB4F"/>
<path d="M176.468 394.714H185.659V425.062H142.707V394.714H151.898V417.054H159.588V394.714H168.779V417.054H176.468V394.714ZM219.455 425.062H208.262L201.437 414.37L199.753 416.645V425.062H190.562V394.714H199.753V406.089L207.716 394.714H218.955L207.488 408.819L219.455 425.062ZM234.236 425.609C224.863 425.609 217.629 419.238 217.629 409.911C217.629 400.583 224.863 394.213 234.236 394.213C243.609 394.213 250.844 400.583 250.844 409.911C250.844 419.238 243.609 425.609 234.236 425.609ZM234.236 417.509C238.65 417.509 241.516 414.142 241.516 409.911C241.516 405.679 238.65 402.312 234.236 402.312C229.823 402.312 226.956 405.679 226.956 409.911C226.956 414.142 229.823 417.509 234.236 417.509ZM251.178 425.609V417.509C253.772 417.509 255.683 415.78 256.411 410.002L258.276 394.714H281.982V425.062H272.791V402.722H266.558L265.557 410.684C264.101 422.651 258.231 425.609 251.178 425.609ZM317.562 425.062H307.143L306.051 421.513H295.131L294.039 425.062H283.619L294.812 394.714H306.369L317.562 425.062ZM303.594 413.505L300.591 403.723L297.588 413.505H303.594ZM157.677 466.609C148.304 466.609 141.069 460.238 141.069 450.911C141.069 441.583 148.304 435.213 157.677 435.213C167.05 435.213 174.284 441.583 174.284 450.911C174.284 460.238 167.05 466.609 157.677 466.609ZM157.677 458.509C162.09 458.509 164.957 455.142 164.957 450.911C164.957 446.679 162.09 443.312 157.677 443.312C153.263 443.312 150.397 446.679 150.397 450.911C150.397 455.142 153.263 458.509 157.677 458.509ZM192.604 466.609C183.094 466.609 175.905 460.238 175.905 450.911C175.905 441.538 183.094 435.213 192.604 435.213C200.566 435.213 204.57 439.854 206.39 444.04L198.473 447.726C197.7 445.36 195.334 443.312 192.604 443.312C188.19 443.312 185.233 446.679 185.233 450.911C185.233 455.142 188.19 458.509 192.604 458.509C195.334 458.509 197.7 456.462 198.473 454.096L206.39 457.736C204.616 461.785 200.566 466.609 192.604 466.609ZM232.292 466.062H209.269V435.714H232.292V443.722H218.46V446.725H231.974V454.733H218.46V458.054H232.292V466.062ZM234.827 471.659V458.509C237.557 458.009 239.331 456.78 240.059 451.002L241.925 435.714H265.63V458.054H268.269V471.659H259.078V466.062H244.018V471.659H234.827ZM249.205 451.684C248.886 454.369 247.794 456.462 246.247 458.054H256.439V443.722H250.206L249.205 451.684ZM269.752 466.609V458.509C272.345 458.509 274.256 456.78 274.984 451.002L276.85 435.714H300.556V466.062H291.364V443.722H285.131L284.13 451.684C282.674 463.651 276.804 466.609 269.752 466.609ZM336.136 466.062H325.716L324.624 462.513H313.704L312.612 466.062H302.192L313.386 435.714H324.943L336.136 466.062ZM322.167 454.505L319.164 444.723L316.161 454.505H322.167ZM367.029 466.062H357.838V454.46H346.963V466.062H337.772V435.714H346.963V446.452H357.838V435.714H367.029V466.062ZM380.769 466.062H371.942V435.714H381.133V451.912L391.689 435.714H401.153V466.062H391.962V448.863L380.769 466.062ZM415.303 466.062H404.838L410.344 455.324C407.932 454.141 404.884 451.366 404.884 446.133C404.884 440.446 408.706 435.714 415.804 435.714H432.002V466.062H422.811V456.507H419.489L415.303 466.062ZM417.214 448.499H422.811V443.722H417.214C415.667 443.722 414.211 444.45 414.211 446.088C414.211 447.771 415.667 448.499 417.214 448.499ZM215.663 507.609C206.29 507.609 199.055 501.238 199.055 491.911C199.055 482.583 206.29 476.213 215.663 476.213C225.036 476.213 232.271 482.583 232.271 491.911C232.271 501.238 225.036 507.609 215.663 507.609ZM215.663 499.509C220.076 499.509 222.943 496.142 222.943 491.911C222.943 487.679 220.076 484.312 215.663 484.312C211.249 484.312 208.383 487.679 208.383 491.911C208.383 496.142 211.249 499.509 215.663 499.509ZM235.529 476.714H260.828V484.722H244.721V487.133H252.183C259.008 487.133 262.648 491.638 262.648 497.052C262.648 502.512 259.008 507.062 252.183 507.062H235.529V476.714ZM251.045 495.141H244.721V499.054H251.045C252.319 499.054 253.32 498.417 253.32 497.098C253.32 495.778 252.319 495.141 251.045 495.141ZM264.109 507.609V499.509C266.702 499.509 268.613 497.78 269.341 492.002L271.207 476.714H294.912V507.062H285.721V484.722H279.488L278.487 492.684C277.031 504.651 271.161 507.609 264.109 507.609ZM330.493 507.062H320.073L318.981 503.513H308.061L306.969 507.062H296.549L307.742 476.714H319.3L330.493 507.062ZM316.524 495.505L313.521 485.723L310.518 495.505H316.524ZM361.022 507.062H349.828L343.003 496.37L341.32 498.645V507.062H332.129V476.714H341.32V488.089L349.282 476.714H360.521L349.055 490.819L361.022 507.062ZM375.803 507.609C366.43 507.609 359.195 501.238 359.195 491.911C359.195 482.583 366.43 476.213 375.803 476.213C385.176 476.213 392.41 482.583 392.41 491.911C392.41 501.238 385.176 507.609 375.803 507.609ZM375.803 499.509C380.216 499.509 383.083 496.142 383.083 491.911C383.083 487.679 380.216 484.312 375.803 484.312C371.389 484.312 368.523 487.679 368.523 491.911C368.523 496.142 371.389 499.509 375.803 499.509ZM414.734 507.062H395.669V476.714H414.097C420.376 476.714 423.106 480.9 423.106 484.449C423.106 488.225 420.877 490.773 417.919 491.41C421.195 491.911 423.698 494.914 423.698 498.827C423.698 503.058 420.831 507.062 414.734 507.062ZM411.958 487.907C412.914 487.907 413.778 487.179 413.778 486.087C413.778 485.04 412.914 484.358 411.958 484.358H404.86V487.907H411.958ZM412.231 499.418C413.551 499.418 414.37 498.645 414.37 497.507C414.37 496.415 413.551 495.551 412.231 495.551H404.86V499.418H412.231Z" fill="#C3FB4F"/>
<path d="M1106.54 430.847H1115.73V461.195H1072.78V430.847H1081.97V453.187H1089.66V430.847H1098.85V453.187H1106.54V430.847ZM1149.53 461.195H1138.33L1131.51 450.503L1129.83 452.778V461.195H1120.63V430.847H1129.83V442.222L1137.79 430.847H1149.03L1137.56 444.952L1149.53 461.195ZM1164.31 461.741C1154.94 461.741 1147.7 455.371 1147.7 446.044C1147.7 436.716 1154.94 430.346 1164.31 430.346C1173.68 430.346 1180.92 436.716 1180.92 446.044C1180.92 455.371 1173.68 461.741 1164.31 461.741ZM1164.31 453.642C1168.72 453.642 1171.59 450.275 1171.59 446.044C1171.59 441.812 1168.72 438.445 1164.31 438.445C1159.89 438.445 1157.03 441.812 1157.03 446.044C1157.03 450.275 1159.89 453.642 1164.31 453.642ZM1181.25 461.741V453.642C1183.84 453.642 1185.76 451.913 1186.48 446.135L1188.35 430.847H1212.05V461.195H1202.86V438.855H1196.63L1195.63 446.817C1194.17 458.784 1188.3 461.741 1181.25 461.741ZM1247.63 461.195H1237.21L1236.12 457.646H1225.2L1224.11 461.195H1213.69L1224.88 430.847H1236.44L1247.63 461.195ZM1233.67 449.638L1230.66 439.856L1227.66 449.638H1233.67ZM948.582 502.741C939.209 502.741 931.974 496.371 931.974 487.044C931.974 477.716 939.209 471.346 948.582 471.346C957.955 471.346 965.189 477.716 965.189 487.044C965.189 496.371 957.955 502.741 948.582 502.741ZM948.582 494.642C952.995 494.642 955.862 491.275 955.862 487.044C955.862 482.812 952.995 479.445 948.582 479.445C944.168 479.445 941.302 482.812 941.302 487.044C941.302 491.275 944.168 494.642 948.582 494.642ZM983.509 502.741C973.999 502.741 966.81 496.371 966.81 487.044C966.81 477.671 973.999 471.346 983.509 471.346C991.471 471.346 995.475 475.987 997.295 480.173L989.378 483.859C988.605 481.493 986.239 479.445 983.509 479.445C979.095 479.445 976.138 482.812 976.138 487.044C976.138 491.275 979.095 494.642 983.509 494.642C986.239 494.642 988.605 492.595 989.378 490.229L997.295 493.869C995.521 497.918 991.471 502.741 983.509 502.741ZM1023.2 502.195H1000.17V471.847H1023.2V479.855H1009.37V482.858H1022.88V490.866H1009.37V494.187H1023.2V502.195ZM1025.73 507.792V494.642C1028.46 494.142 1030.24 492.913 1030.96 487.135L1032.83 471.847H1056.54V494.187H1059.17V507.792H1049.98V502.195H1034.92V507.792H1025.73ZM1040.11 487.817C1039.79 490.502 1038.7 492.595 1037.15 494.187H1047.34V479.855H1041.11L1040.11 487.817ZM1060.66 502.741V494.642C1063.25 494.642 1065.16 492.913 1065.89 487.135L1067.75 471.847H1091.46V502.195H1082.27V479.855H1076.04L1075.03 487.817C1073.58 499.784 1067.71 502.741 1060.66 502.741ZM1127.04 502.195H1116.62L1115.53 498.646H1104.61L1103.52 502.195H1093.1L1104.29 471.847H1115.85L1127.04 502.195ZM1113.07 490.638L1110.07 480.856L1107.07 490.638H1113.07ZM1157.93 502.195H1148.74V490.593H1137.87V502.195H1128.68V471.847H1137.87V482.585H1148.74V471.847H1157.93V502.195ZM1171.67 502.195H1162.85V471.847H1172.04V488.045L1182.59 471.847H1192.06V502.195H1182.87V484.996L1171.67 502.195ZM1206.21 502.195H1195.74L1201.25 491.457C1198.84 490.274 1195.79 487.499 1195.79 482.266C1195.79 476.579 1199.61 471.847 1206.71 471.847H1222.91V502.195H1213.72V492.64H1210.39L1206.21 502.195ZM1208.12 484.632H1213.72V479.855H1208.12C1206.57 479.855 1205.12 480.583 1205.12 482.221C1205.12 483.904 1206.57 484.632 1208.12 484.632ZM971.776 543.741C962.403 543.741 955.169 537.371 955.169 528.044C955.169 518.716 962.403 512.346 971.776 512.346C981.149 512.346 988.384 518.716 988.384 528.044C988.384 537.371 981.149 543.741 971.776 543.741ZM971.776 535.642C976.19 535.642 979.056 532.275 979.056 528.044C979.056 523.812 976.19 520.445 971.776 520.445C967.363 520.445 964.496 523.812 964.496 528.044C964.496 532.275 967.363 535.642 971.776 535.642ZM991.643 512.847H1016.94V520.855H1000.83V523.266H1008.3C1015.12 523.266 1018.76 527.771 1018.76 533.185C1018.76 538.645 1015.12 543.195 1008.3 543.195H991.643V512.847ZM1007.16 531.274H1000.83V535.187H1007.16C1008.43 535.187 1009.43 534.55 1009.43 533.231C1009.43 531.911 1008.43 531.274 1007.16 531.274ZM1020.22 543.741V535.642C1022.82 535.642 1024.73 533.913 1025.45 528.135L1027.32 512.847H1051.03V543.195H1041.83V520.855H1035.6L1034.6 528.817C1033.14 540.784 1027.27 543.741 1020.22 543.741ZM1086.61 543.195H1076.19L1075.09 539.646H1064.17L1063.08 543.195H1052.66L1063.86 512.847H1075.41L1086.61 543.195ZM1072.64 531.638L1069.63 521.856L1066.63 531.638H1072.64ZM1117.13 543.195H1105.94L1099.12 532.503L1097.43 534.778V543.195H1088.24V512.847H1097.43V524.222L1105.4 512.847H1116.63L1105.17 526.952L1117.13 543.195ZM1131.92 543.741C1122.54 543.741 1115.31 537.371 1115.31 528.044C1115.31 518.716 1122.54 512.346 1131.92 512.346C1141.29 512.346 1148.52 518.716 1148.52 528.044C1148.52 537.371 1141.29 543.741 1131.92 543.741ZM1131.92 535.642C1136.33 535.642 1139.2 532.275 1139.2 528.044C1139.2 523.812 1136.33 520.445 1131.92 520.445C1127.5 520.445 1124.64 523.812 1124.64 528.044C1124.64 532.275 1127.5 535.642 1131.92 535.642ZM1170.85 543.195H1151.78V512.847H1170.21C1176.49 512.847 1179.22 517.033 1179.22 520.582C1179.22 524.358 1176.99 526.906 1174.03 527.543C1177.31 528.044 1179.81 531.047 1179.81 534.96C1179.81 539.191 1176.94 543.195 1170.85 543.195ZM1168.07 524.04C1169.03 524.04 1169.89 523.312 1169.89 522.22C1169.89 521.173 1169.03 520.491 1168.07 520.491H1160.97V524.04H1168.07ZM1168.34 535.551C1169.66 535.551 1170.48 534.778 1170.48 533.64C1170.48 532.548 1169.66 531.684 1168.34 531.684H1160.97V535.551H1168.34Z" fill="#C3FB4F"/>
<path d="M655.548 361.257H664.739V391.605H621.787V361.257H630.978V383.597H638.668V361.257H647.859V383.597H655.548V361.257ZM698.535 391.605H687.342L680.517 380.913L678.833 383.188V391.605H669.642V361.257H678.833V372.632L686.796 361.257H698.034L686.568 375.362L698.535 391.605ZM713.316 392.151C703.943 392.151 696.709 385.781 696.709 376.454C696.709 367.126 703.943 360.756 713.316 360.756C722.689 360.756 729.924 367.126 729.924 376.454C729.924 385.781 722.689 392.151 713.316 392.151ZM713.316 384.052C717.73 384.052 720.596 380.685 720.596 376.454C720.596 372.222 717.73 368.855 713.316 368.855C708.903 368.855 706.036 372.222 706.036 376.454C706.036 380.685 708.903 384.052 713.316 384.052ZM730.258 392.151V384.052C732.852 384.052 734.763 382.323 735.491 376.545L737.356 361.257H761.062V391.605H751.871V369.265H745.637L744.636 377.227C743.18 389.194 737.311 392.151 730.258 392.151ZM796.642 391.605H786.223L785.131 388.056H774.211L773.119 391.605H762.699L773.892 361.257H785.449L796.642 391.605ZM782.674 380.048L779.671 370.266L776.668 380.048H782.674ZM497.589 433.151C488.216 433.151 480.982 426.781 480.982 417.454C480.982 408.126 488.216 401.756 497.589 401.756C506.963 401.756 514.197 408.126 514.197 417.454C514.197 426.781 506.963 433.151 497.589 433.151ZM497.589 425.052C502.003 425.052 504.87 421.685 504.87 417.454C504.87 413.222 502.003 409.855 497.589 409.855C493.176 409.855 490.309 413.222 490.309 417.454C490.309 421.685 493.176 425.052 497.589 425.052ZM532.517 433.151C523.007 433.151 515.818 426.781 515.818 417.454C515.818 408.081 523.007 401.756 532.517 401.756C540.479 401.756 544.483 406.397 546.303 410.583L538.386 414.269C537.613 411.903 535.247 409.855 532.517 409.855C528.103 409.855 525.146 413.222 525.146 417.454C525.146 421.685 528.103 425.052 532.517 425.052C535.247 425.052 537.613 423.005 538.386 420.639L546.303 424.279C544.529 428.328 540.479 433.151 532.517 433.151ZM572.205 432.605H549.182V402.257H572.205V410.265H558.373V413.268H571.887V421.276H558.373V424.597H572.205V432.605ZM574.74 438.202V425.052C577.47 424.552 579.244 423.323 579.972 417.545L581.838 402.257H605.543V424.597H608.182V438.202H598.991V432.605H583.931V438.202H574.74ZM589.118 418.227C588.799 420.912 587.707 423.005 586.16 424.597H596.352V410.265H590.119L589.118 418.227ZM609.665 433.151V425.052C612.258 425.052 614.169 423.323 614.897 417.545L616.763 402.257H640.468V432.605H631.277V410.265H625.044L624.043 418.227C622.587 430.194 616.717 433.151 609.665 433.151ZM676.049 432.605H665.629L664.537 429.056H653.617L652.525 432.605H642.105L653.298 402.257H664.855L676.049 432.605ZM662.08 421.048L659.077 411.266L656.074 421.048H662.08ZM706.942 432.605H697.75V421.003H686.876V432.605H677.685V402.257H686.876V412.995H697.75V402.257H706.942V432.605ZM720.682 432.605H711.855V402.257H721.046V418.455L731.602 402.257H741.066V432.605H731.875V415.406L720.682 432.605ZM755.216 432.605H744.751L750.257 421.867C747.845 420.684 744.797 417.909 744.797 412.676C744.797 406.989 748.619 402.257 755.717 402.257H771.915V432.605H762.724V423.05H759.402L755.216 432.605ZM757.127 415.042H762.724V410.265H757.127C755.58 410.265 754.124 410.993 754.124 412.631C754.124 414.314 755.58 415.042 757.127 415.042ZM520.784 474.151C511.411 474.151 504.176 467.781 504.176 458.454C504.176 449.126 511.411 442.756 520.784 442.756C530.157 442.756 537.392 449.126 537.392 458.454C537.392 467.781 530.157 474.151 520.784 474.151ZM520.784 466.052C525.198 466.052 528.064 462.685 528.064 458.454C528.064 454.222 525.198 450.855 520.784 450.855C516.37 450.855 513.504 454.222 513.504 458.454C513.504 462.685 516.37 466.052 520.784 466.052ZM540.651 443.257H565.949V451.265H549.842V453.676H557.304C564.129 453.676 567.769 458.181 567.769 463.595C567.769 469.055 564.129 473.605 557.304 473.605H540.651V443.257ZM556.166 461.684H549.842V465.597H556.166C557.44 465.597 558.441 464.96 558.441 463.641C558.441 462.321 557.44 461.684 556.166 461.684ZM569.23 474.151V466.052C571.823 466.052 573.734 464.323 574.462 458.545L576.328 443.257H600.034V473.605H590.842V451.265H584.609L583.608 459.227C582.152 471.194 576.282 474.151 569.23 474.151ZM635.614 473.605H625.194L624.102 470.056H613.182L612.09 473.605H601.67L612.864 443.257H624.421L635.614 473.605ZM621.645 462.048L618.642 452.266L615.639 462.048H621.645ZM666.143 473.605H654.95L648.125 462.913L646.441 465.188V473.605H637.25V443.257H646.441V454.632L654.404 443.257H665.642L654.176 457.362L666.143 473.605ZM680.924 474.151C671.551 474.151 664.316 467.781 664.316 458.454C664.316 449.126 671.551 442.756 680.924 442.756C690.297 442.756 697.531 449.126 697.531 458.454C697.531 467.781 690.297 474.151 680.924 474.151ZM680.924 466.052C685.337 466.052 688.204 462.685 688.204 458.454C688.204 454.222 685.337 450.855 680.924 450.855C676.51 450.855 673.644 454.222 673.644 458.454C673.644 462.685 676.51 466.052 680.924 466.052ZM719.855 473.605H700.79V443.257H719.218C725.497 443.257 728.227 447.443 728.227 450.992C728.227 454.768 725.998 457.316 723.04 457.953C726.316 458.454 728.819 461.457 728.819 465.37C728.819 469.601 725.952 473.605 719.855 473.605ZM717.08 454.45C718.035 454.45 718.9 453.722 718.9 452.63C718.9 451.583 718.035 450.901 717.08 450.901H709.982V454.45H717.08ZM717.353 465.961C718.672 465.961 719.491 465.188 719.491 464.05C719.491 462.958 718.672 462.094 717.353 462.094H709.982V465.961H717.353Z" fill="#C3FB4F"/>
<path d="M33.2387 311.743H42.4297V342.092H-0.522603V311.743H8.66847V334.084H16.358V311.743H25.5491V334.084H33.2387V311.743ZM76.2255 342.092H65.0324L58.2073 331.399L56.5238 333.674V342.092H47.3327V311.743H56.5238V323.118L64.4864 311.743H75.7249L64.2589 325.848L76.2255 342.092ZM91.0067 342.638C81.6336 342.638 74.399 336.268 74.399 326.94C74.399 317.613 81.6336 311.243 91.0067 311.243C100.38 311.243 107.614 317.613 107.614 326.94C107.614 336.268 100.38 342.638 91.0067 342.638ZM91.0067 334.539C95.4202 334.539 98.2867 331.172 98.2867 326.94C98.2867 322.709 95.4202 319.342 91.0067 319.342C86.5931 319.342 83.7266 322.709 83.7266 326.94C83.7266 331.172 86.5931 334.539 91.0067 334.539ZM107.949 342.638V334.539C110.542 334.539 112.453 332.81 113.181 327.031L115.047 311.743H138.753V342.092H129.561V319.751H123.328L122.327 327.714C120.871 339.68 115.001 342.638 107.949 342.638ZM174.333 342.092H163.913L162.821 338.543H151.901L150.809 342.092H140.389L151.583 311.743H163.14L174.333 342.092ZM160.364 330.535L157.361 320.752L154.358 330.535H160.364ZM202.536 342.638C193.163 342.638 185.928 336.268 185.928 326.94C185.928 317.613 193.163 311.243 202.536 311.243C211.909 311.243 219.143 317.613 219.143 326.94C219.143 336.268 211.909 342.638 202.536 342.638ZM202.536 334.539C206.949 334.539 209.816 331.172 209.816 326.94C209.816 322.709 206.949 319.342 202.536 319.342C198.122 319.342 195.256 322.709 195.256 326.94C195.256 331.172 198.122 334.539 202.536 334.539ZM237.463 342.638C227.953 342.638 220.764 336.268 220.764 326.94C220.764 317.567 227.953 311.243 237.463 311.243C245.426 311.243 249.43 315.884 251.25 320.07L243.333 323.755C242.559 321.389 240.193 319.342 237.463 319.342C233.049 319.342 230.092 322.709 230.092 326.94C230.092 331.172 233.049 334.539 237.463 334.539C240.193 334.539 242.559 332.491 243.333 330.125L251.25 333.765C249.475 337.815 245.426 342.638 237.463 342.638ZM277.151 342.092H254.128V311.743H277.151V319.751H263.319V322.754H276.833V330.762H263.319V334.084H277.151V342.092ZM279.686 347.688V334.539C282.416 334.038 284.19 332.81 284.918 327.031L286.784 311.743H310.49V334.084H313.129V347.688H303.938V342.092H288.877V347.688H279.686ZM294.064 327.714C293.746 330.398 292.654 332.491 291.107 334.084H301.299V319.751H295.065L294.064 327.714ZM314.611 342.638V334.539C317.204 334.539 319.115 332.81 319.844 327.031L321.709 311.743H345.415V342.092H336.224V319.751H329.99L328.989 327.714C327.533 339.68 321.664 342.638 314.611 342.638ZM380.995 342.092H370.575L369.483 338.543H358.563L357.471 342.092H347.052L358.245 311.743H369.802L380.995 342.092ZM367.026 330.535L364.023 320.752L361.02 330.535H367.026ZM411.888 342.092H402.697V330.489H391.822V342.092H382.631V311.743H391.822V322.481H402.697V311.743H411.888V342.092ZM425.628 342.092H416.801V311.743H425.992V327.941L436.548 311.743H446.012V342.092H436.821V324.893L425.628 342.092ZM460.163 342.092H449.698L455.203 331.354C452.792 330.171 449.743 327.395 449.743 322.163C449.743 316.475 453.565 311.743 460.663 311.743H476.861V342.092H467.67V332.537H464.349L460.163 342.092ZM462.074 324.529H467.67V319.751H462.074C460.527 319.751 459.071 320.479 459.071 322.117C459.071 323.801 460.527 324.529 462.074 324.529ZM95.8499 383.638C86.4769 383.638 79.2423 377.268 79.2423 367.94C79.2423 358.613 86.4769 352.243 95.8499 352.243C105.223 352.243 112.458 358.613 112.458 367.94C112.458 377.268 105.223 383.638 95.8499 383.638ZM95.8499 375.539C100.263 375.539 103.13 372.172 103.13 367.94C103.13 363.709 100.263 360.342 95.8499 360.342C91.4364 360.342 88.5699 363.709 88.5699 367.94C88.5699 372.172 91.4364 375.539 95.8499 375.539ZM115.717 352.743H141.015V360.751H124.908V363.163H132.37C139.195 363.163 142.835 367.667 142.835 373.082C142.835 378.542 139.195 383.092 132.37 383.092H115.717V352.743ZM131.232 371.171H124.908V375.084H131.232C132.506 375.084 133.507 374.447 133.507 373.127C133.507 371.808 132.506 371.171 131.232 371.171ZM144.296 383.638V375.539C146.889 375.539 148.8 373.81 149.528 368.031L151.394 352.743H175.099V383.092H165.908V360.751H159.675L158.674 368.714C157.218 380.68 151.348 383.638 144.296 383.638ZM210.68 383.092H200.26L199.168 379.543H188.248L187.156 383.092H176.736L187.929 352.743H199.487L210.68 383.092ZM196.711 371.535L193.708 361.752L190.705 371.535H196.711ZM241.209 383.092H230.016L223.19 372.399L221.507 374.674V383.092H212.316V352.743H221.507V364.118L229.47 352.743H240.708L229.242 366.848L241.209 383.092ZM255.99 383.638C246.617 383.638 239.382 377.268 239.382 367.94C239.382 358.613 246.617 352.243 255.99 352.243C265.363 352.243 272.597 358.613 272.597 367.94C272.597 377.268 265.363 383.638 255.99 383.638ZM255.99 375.539C260.403 375.539 263.27 372.172 263.27 367.94C263.27 363.709 260.403 360.342 255.99 360.342C251.576 360.342 248.71 363.709 248.71 367.94C248.71 372.172 251.576 375.539 255.99 375.539ZM294.921 383.092H275.856V352.743H294.284C300.563 352.743 303.293 356.929 303.293 360.478C303.293 364.255 301.064 366.803 298.106 367.44C301.382 367.94 303.885 370.943 303.885 374.856C303.885 379.088 301.018 383.092 294.921 383.092ZM292.145 363.936C293.101 363.936 293.966 363.208 293.966 362.116C293.966 361.07 293.101 360.387 292.145 360.387H285.047V363.936H292.145ZM292.418 375.448C293.738 375.448 294.557 374.674 294.557 373.537C294.557 372.445 293.738 371.58 292.418 371.58H285.047V375.448H292.418Z" fill="#C3FB4F"/>
<path d="M221.072 228.77H230.263V259.119H187.31V228.77H196.502V251.111H204.191V228.77H213.382V251.111H221.072V228.77ZM264.059 259.119H252.865L246.04 248.427L244.357 250.702V259.119H235.166V228.77H244.357V240.145L252.319 228.77H263.558L252.092 242.876L264.059 259.119ZM278.84 259.665C269.467 259.665 262.232 253.295 262.232 243.968C262.232 234.64 269.467 228.27 278.84 228.27C288.213 228.27 295.447 234.64 295.447 243.968C295.447 253.295 288.213 259.665 278.84 259.665ZM278.84 251.566C283.253 251.566 286.12 248.199 286.12 243.968C286.12 239.736 283.253 236.369 278.84 236.369C274.426 236.369 271.56 239.736 271.56 243.968C271.56 248.199 274.426 251.566 278.84 251.566ZM295.782 259.665V251.566C298.375 251.566 300.286 249.837 301.014 244.059L302.88 228.77H326.586V259.119H317.395V236.778H311.161L310.16 244.741C308.704 256.708 302.834 259.665 295.782 259.665ZM362.166 259.119H351.746L350.654 255.57H339.734L338.642 259.119H328.223L339.416 228.77H350.973L362.166 259.119ZM348.197 247.562L345.194 237.779L342.191 247.562H348.197ZM390.369 259.665C380.996 259.665 373.761 253.295 373.761 243.968C373.761 234.64 380.996 228.27 390.369 228.27C399.742 228.27 406.977 234.64 406.977 243.968C406.977 253.295 399.742 259.665 390.369 259.665ZM390.369 251.566C394.782 251.566 397.649 248.199 397.649 243.968C397.649 239.736 394.782 236.369 390.369 236.369C385.955 236.369 383.089 239.736 383.089 243.968C383.089 248.199 385.955 251.566 390.369 251.566ZM425.296 259.665C415.787 259.665 408.597 253.295 408.597 243.968C408.597 234.594 415.787 228.27 425.296 228.27C433.259 228.27 437.263 232.911 439.083 237.097L431.166 240.783C430.392 238.416 428.026 236.369 425.296 236.369C420.883 236.369 417.925 239.736 417.925 243.968C417.925 248.199 420.883 251.566 425.296 251.566C428.026 251.566 430.392 249.519 431.166 247.153L439.083 250.793C437.308 254.842 433.259 259.665 425.296 259.665ZM464.984 259.119H441.961V228.77H464.984V236.778H451.152V239.781H464.666V247.79H451.152V251.111H464.984V259.119ZM467.519 264.716V251.566C470.249 251.066 472.024 249.837 472.752 244.059L474.617 228.77H498.323V251.111H500.962V264.716H491.771V259.119H476.71V264.716H467.519ZM481.897 244.741C481.579 247.426 480.487 249.519 478.94 251.111H489.132V236.778H482.898L481.897 244.741ZM502.444 259.665V251.566C505.038 251.566 506.949 249.837 507.677 244.059L509.542 228.77H533.248V259.119H524.057V236.778H517.823L516.822 244.741C515.366 256.708 509.497 259.665 502.444 259.665ZM568.828 259.119H558.408L557.316 255.57H546.396L545.304 259.119H534.885L546.078 228.77H557.635L568.828 259.119ZM554.859 247.562L551.856 237.779L548.853 247.562H554.859ZM599.721 259.119H590.53V247.517H579.655V259.119H570.464V228.77H579.655V239.508H590.53V228.77H599.721V259.119ZM613.461 259.119H604.634V228.77H613.825V244.969L624.381 228.77H633.845V259.119H624.654V241.92L613.461 259.119ZM647.996 259.119H637.531L643.036 248.381C640.625 247.198 637.576 244.423 637.576 239.19C637.576 233.502 641.398 228.77 648.496 228.77H664.694V259.119H655.503V249.564H652.182L647.996 259.119ZM649.907 241.556H655.503V236.778H649.907C648.36 236.778 646.904 237.506 646.904 239.144C646.904 240.828 648.36 241.556 649.907 241.556ZM144.294 300.665C134.921 300.665 127.686 294.295 127.686 284.968C127.686 275.64 134.921 269.27 144.294 269.27C153.667 269.27 160.901 275.64 160.901 284.968C160.901 294.295 153.667 300.665 144.294 300.665ZM144.294 292.566C148.707 292.566 151.574 289.199 151.574 284.968C151.574 280.736 148.707 277.369 144.294 277.369C139.88 277.369 137.014 280.736 137.014 284.968C137.014 289.199 139.88 292.566 144.294 292.566ZM164.16 269.77H189.459V277.778H173.351V280.19H180.814C187.639 280.19 191.279 284.695 191.279 290.109C191.279 295.569 187.639 300.119 180.814 300.119H164.16V269.77ZM179.676 288.198H173.351V292.111H179.676C180.95 292.111 181.951 291.474 181.951 290.155C181.951 288.835 180.95 288.198 179.676 288.198ZM192.74 300.665V292.566C195.333 292.566 197.244 290.837 197.972 285.059L199.838 269.77H223.543V300.119H214.352V277.778H208.119L207.118 285.741C205.662 297.708 199.792 300.665 192.74 300.665ZM259.124 300.119H248.704L247.612 296.57H236.692L235.6 300.119H225.18L236.373 269.77H247.93L259.124 300.119ZM245.155 288.562L242.152 278.779L239.149 288.562H245.155ZM289.652 300.119H278.459L271.634 289.427L269.951 291.702V300.119H260.76V269.77H269.951V281.145L277.913 269.77H289.152L277.686 283.876L289.652 300.119ZM304.434 300.665C295.061 300.665 287.826 294.295 287.826 284.968C287.826 275.64 295.061 269.27 304.434 269.27C313.807 269.27 321.041 275.64 321.041 284.968C321.041 294.295 313.807 300.665 304.434 300.665ZM304.434 292.566C308.847 292.566 311.714 289.199 311.714 284.968C311.714 280.736 308.847 277.369 304.434 277.369C300.02 277.369 297.154 280.736 297.154 284.968C297.154 289.199 300.02 292.566 304.434 292.566ZM343.365 300.119H324.3V269.77H342.728C349.007 269.77 351.737 273.956 351.737 277.505C351.737 281.282 349.507 283.83 346.55 284.467C349.826 284.968 352.328 287.971 352.328 291.884C352.328 296.115 349.462 300.119 343.365 300.119ZM340.589 280.963C341.545 280.963 342.409 280.235 342.409 279.143C342.409 278.097 341.545 277.414 340.589 277.414H333.491V280.963H340.589ZM340.862 292.475C342.182 292.475 343.001 291.702 343.001 290.564C343.001 289.472 342.182 288.608 340.862 288.608H333.491V292.475H340.862Z" fill="#C3FB4F"/>
<path d="M680.091 560.655H689.282V591.004H646.33V560.655H655.521V582.996H663.211V560.655H672.402V582.996H680.091V560.655ZM723.078 591.004H711.885L705.06 580.311L703.376 582.586V591.004H694.185V560.655H703.376V572.03L711.339 560.655H722.578L711.111 574.76L723.078 591.004ZM737.859 591.55C728.486 591.55 721.252 585.18 721.252 575.852C721.252 566.525 728.486 560.155 737.859 560.155C747.232 560.155 754.467 566.525 754.467 575.852C754.467 585.18 747.232 591.55 737.859 591.55ZM737.859 583.451C742.273 583.451 745.139 580.084 745.139 575.852C745.139 571.621 742.273 568.254 737.859 568.254C733.446 568.254 730.579 571.621 730.579 575.852C730.579 580.084 733.446 583.451 737.859 583.451ZM754.801 591.55V583.451C757.395 583.451 759.306 581.722 760.034 575.943L761.899 560.655H785.605V591.004H776.414V568.663H770.181L769.18 576.626C767.723 588.592 761.854 591.55 754.801 591.55ZM821.185 591.004H810.766L809.674 587.455H798.754L797.662 591.004H787.242L798.435 560.655H809.992L821.185 591.004ZM807.217 579.447L804.214 569.664L801.211 579.447H807.217ZM849.388 591.55C840.015 591.55 832.781 585.18 832.781 575.852C832.781 566.525 840.015 560.155 849.388 560.155C858.761 560.155 865.996 566.525 865.996 575.852C865.996 585.18 858.761 591.55 849.388 591.55ZM849.388 583.451C853.802 583.451 856.668 580.084 856.668 575.852C856.668 571.621 853.802 568.254 849.388 568.254C844.975 568.254 842.108 571.621 842.108 575.852C842.108 580.084 844.975 583.451 849.388 583.451ZM884.316 591.55C874.806 591.55 867.617 585.18 867.617 575.852C867.617 566.479 874.806 560.155 884.316 560.155C892.278 560.155 896.282 564.796 898.102 568.982L890.185 572.667C889.412 570.301 887.046 568.254 884.316 568.254C879.902 568.254 876.945 571.621 876.945 575.852C876.945 580.084 879.902 583.451 884.316 583.451C887.046 583.451 889.412 581.403 890.185 579.037L898.102 582.677C896.328 586.727 892.278 591.55 884.316 591.55ZM924.004 591.004H900.981V560.655H924.004V568.663H910.172V571.666H923.685V579.674H910.172V582.996H924.004V591.004ZM926.539 596.6V583.451C929.269 582.95 931.043 581.722 931.771 575.943L933.637 560.655H957.342V582.996H959.981V596.6H950.79V591.004H935.73V596.6H926.539ZM940.917 576.626C940.598 579.31 939.506 581.403 937.959 582.996H948.151V568.663H941.918L940.917 576.626ZM961.464 591.55V583.451C964.057 583.451 965.968 581.722 966.696 575.943L968.562 560.655H992.267V591.004H983.076V568.663H976.843L975.842 576.626C974.386 588.592 968.516 591.55 961.464 591.55ZM1027.85 591.004H1017.43L1016.34 587.455H1005.42L1004.32 591.004H993.904L1005.1 560.655H1016.65L1027.85 591.004ZM1013.88 579.447L1010.88 569.664L1007.87 579.447H1013.88ZM1058.74 591.004H1049.55V579.401H1038.67V591.004H1029.48V560.655H1038.67V571.393H1049.55V560.655H1058.74V591.004ZM1072.48 591.004H1063.65V560.655H1072.84V576.853L1083.4 560.655H1092.86V591.004H1083.67V573.805L1072.48 591.004ZM1107.02 591.004H1096.55L1102.06 580.266C1099.64 579.083 1096.6 576.307 1096.6 571.075C1096.6 565.387 1100.42 560.655 1107.52 560.655H1123.71V591.004H1114.52V581.449H1111.2L1107.02 591.004ZM1108.93 573.441H1114.52V568.663H1108.93C1107.38 568.663 1105.92 569.391 1105.92 571.029C1105.92 572.713 1107.38 573.441 1108.93 573.441ZM603.313 632.55C593.94 632.55 586.706 626.18 586.706 616.852C586.706 607.525 593.94 601.155 603.313 601.155C612.686 601.155 619.921 607.525 619.921 616.852C619.921 626.18 612.686 632.55 603.313 632.55ZM603.313 624.451C607.727 624.451 610.593 621.084 610.593 616.852C610.593 612.621 607.727 609.254 603.313 609.254C598.9 609.254 596.033 612.621 596.033 616.852C596.033 621.084 598.9 624.451 603.313 624.451ZM623.18 601.655H648.478V609.663H632.371V612.075H639.833C646.658 612.075 650.298 616.579 650.298 621.994C650.298 627.454 646.658 632.004 639.833 632.004H623.18V601.655ZM638.696 620.083H632.371V623.996H638.696C639.97 623.996 640.971 623.359 640.971 622.039C640.971 620.72 639.97 620.083 638.696 620.083ZM651.759 632.55V624.451C654.353 624.451 656.264 622.722 656.992 616.943L658.857 601.655H682.563V632.004H673.372V609.663H667.138L666.137 617.626C664.681 629.592 658.812 632.55 651.759 632.55ZM718.143 632.004H707.723L706.631 628.455H695.711L694.619 632.004H684.2L695.393 601.655H706.95L718.143 632.004ZM704.174 620.447L701.171 610.664L698.168 620.447H704.174ZM748.672 632.004H737.479L730.654 621.311L728.97 623.586V632.004H719.779V601.655H728.97V613.03L736.933 601.655H748.171L736.705 615.76L748.672 632.004ZM763.453 632.55C754.08 632.55 746.846 626.18 746.846 616.852C746.846 607.525 754.08 601.155 763.453 601.155C772.826 601.155 780.061 607.525 780.061 616.852C780.061 626.18 772.826 632.55 763.453 632.55ZM763.453 624.451C767.867 624.451 770.733 621.084 770.733 616.852C770.733 612.621 767.867 609.254 763.453 609.254C759.04 609.254 756.173 612.621 756.173 616.852C756.173 621.084 759.04 624.451 763.453 624.451ZM802.384 632.004H783.32V601.655H801.747C808.026 601.655 810.757 605.841 810.757 609.39C810.757 613.167 808.527 615.715 805.569 616.352C808.845 616.852 811.348 619.855 811.348 623.768C811.348 628 808.481 632.004 802.384 632.004ZM799.609 612.848C800.564 612.848 801.429 612.12 801.429 611.028C801.429 609.982 800.564 609.299 799.609 609.299H792.511V612.848H799.609ZM799.882 624.36C801.201 624.36 802.02 623.586 802.02 622.449C802.02 621.357 801.201 620.492 799.882 620.492H792.511V624.36H799.882Z" fill="#C3FB4F"/>
</g>
<defs>
<clipPath id="clip0_265_1004">
<rect width="1330" height="642" fill="white"/>
</clipPath>
</defs>
</svg>
