<svg width="150" height="95" viewBox="0 0 150 95" fill="none" xmlns="http://www.w3.org/2000/svg">
<path d="M51.9102 94.7832C61.628 94.7832 70.0103 88.0599 73.9208 78.3311C79.1451 84.5585 86.0368 87.7964 92.609 86.2647C99.5156 84.6549 104.407 78.1648 106.131 69.667C110.367 71.742 115.282 72.9297 120.523 72.9297C136.431 72.9297 149.315 61.9898 149.301 48.4951C149.289 37.0937 140.073 27.5173 127.62 24.8204C125.329 10.7944 111.352 5.64952e-05 94.4597 5.64952e-05C80.6521 0.00018534 68.8067 7.21219 63.706 17.5059C58.3333 7.739 46.7942 0.982478 33.4304 0.982478C14.9503 0.982492 -0.0166069 13.901 0.000518479 29.837C0.0161398 44.2595 12.2996 56.2099 28.3319 58.3496C27.7802 60.765 27.4857 63.3058 27.4885 65.9287C27.5056 81.8646 38.4393 94.7831 51.9102 94.7832Z" fill="#C3FB4F"/>
</svg>
