<svg width="511" height="326" viewBox="0 0 511 326" fill="none" xmlns="http://www.w3.org/2000/svg">
<path d="M177.205 4.9144e-06C210.426 -0.0123067 239.094 23.1091 252.465 56.5703C270.306 35.1441 293.857 23.9958 316.324 29.2539C339.922 34.7765 356.649 57.0698 362.56 86.2666C377.026 79.1341 393.813 75.0486 411.714 75.042C466.067 75.022 510.111 112.605 510.088 158.986C510.068 198.165 478.61 231.089 436.079 240.381C428.291 288.602 380.54 325.73 322.813 325.752C275.635 325.769 235.145 300.996 217.697 265.622C199.359 299.197 159.94 322.431 114.279 322.448C51.1361 322.472 -0.0287017 278.09 -0.00148414 223.318C0.0232854 173.757 41.9558 132.672 96.7163 125.286C94.8214 116.976 93.8118 108.231 93.8163 99.2041C93.8437 44.4326 131.178 0.0171698 177.205 4.9144e-06Z" fill="#312783"/>
</svg>
