<svg width="729" height="435" viewBox="0 0 729 435" fill="none" xmlns="http://www.w3.org/2000/svg">
<mask id="path-1-inside-1_223_110" fill="white">
<path fill-rule="evenodd" clip-rule="evenodd" d="M455.088 0.0657304C493.54 -1.42055 524.412 22.4399 534.591 57.3138C552.755 49.4997 573.162 44.4198 594.581 43.011C666.352 38.2907 722.31 76.5682 719.568 128.506C718.886 141.408 714.645 153.938 707.557 165.559C721.99 181.87 729.893 204.577 727.916 230.022C723.884 281.917 680.282 325.545 630.53 327.468C616.006 328.03 602.565 324.973 590.91 319.075C588.392 324.275 584.746 328.998 580.042 332.777C564.045 345.628 541.896 342.715 530.57 326.269C527.505 321.818 525.549 316.831 524.64 311.67C516.008 317.096 506.634 321.224 496.81 323.76C497.049 328.014 497.004 332.37 496.659 336.81C492.627 388.705 449.027 432.334 399.275 434.257C368.04 435.464 341.808 419.947 327.605 395.388C315.291 398.006 302.42 399.647 289.225 400.158C225.752 402.611 173.886 378.164 157.239 342.004C141.177 354.594 121.743 362.452 101.267 363.243C51.5146 365.167 14.4511 324.655 18.4836 272.76C19.9059 254.457 26.2506 237.182 36.051 222.403C-1.49207 182.428 -11.6524 128.098 14.8068 90.8509C41.9214 52.6817 98.6019 44.9676 149.653 69.4271C151.121 59.7054 156.087 50.4168 164.179 43.9163C180.176 31.0647 202.325 33.9781 213.651 50.4241C214.327 51.4062 214.948 52.4153 215.517 53.4456C232.683 37.697 254.625 27.6574 277.915 26.7571C318.186 25.2005 350.142 51.4464 358.721 89.0276C366.55 40.9425 408.073 1.88307 455.088 0.0657304Z"/>
</mask>
<path fill-rule="evenodd" clip-rule="evenodd" d="M455.088 0.0657304C493.54 -1.42055 524.412 22.4399 534.591 57.3138C552.755 49.4997 573.162 44.4198 594.581 43.011C666.352 38.2907 722.31 76.5682 719.568 128.506C718.886 141.408 714.645 153.938 707.557 165.559C721.99 181.87 729.893 204.577 727.916 230.022C723.884 281.917 680.282 325.545 630.53 327.468C616.006 328.03 602.565 324.973 590.91 319.075C588.392 324.275 584.746 328.998 580.042 332.777C564.045 345.628 541.896 342.715 530.57 326.269C527.505 321.818 525.549 316.831 524.64 311.67C516.008 317.096 506.634 321.224 496.81 323.76C497.049 328.014 497.004 332.37 496.659 336.81C492.627 388.705 449.027 432.334 399.275 434.257C368.04 435.464 341.808 419.947 327.605 395.388C315.291 398.006 302.42 399.647 289.225 400.158C225.752 402.611 173.886 378.164 157.239 342.004C141.177 354.594 121.743 362.452 101.267 363.243C51.5146 365.167 14.4511 324.655 18.4836 272.76C19.9059 254.457 26.2506 237.182 36.051 222.403C-1.49207 182.428 -11.6524 128.098 14.8068 90.8509C41.9214 52.6817 98.6019 44.9676 149.653 69.4271C151.121 59.7054 156.087 50.4168 164.179 43.9163C180.176 31.0647 202.325 33.9781 213.651 50.4241C214.327 51.4062 214.948 52.4153 215.517 53.4456C232.683 37.697 254.625 27.6574 277.915 26.7571C318.186 25.2005 350.142 51.4464 358.721 89.0276C366.55 40.9425 408.073 1.88307 455.088 0.0657304Z" fill="#312783"/>
<path fill-rule="evenodd" clip-rule="evenodd" d="M455.088 0.0657304L454.52 -14.644L454.519 -14.644L455.088 0.0657304ZM534.591 57.3138L520.46 61.4382L525.122 77.4122L540.408 70.8363L534.591 57.3138ZM594.581 43.011L593.615 28.3221V28.3221L594.581 43.011ZM719.568 128.506L734.268 129.283V129.282L719.568 128.506ZM707.557 165.559L694.989 157.894L689.329 167.174L696.533 175.314L707.557 165.559ZM727.916 230.022L742.593 231.162V231.162L727.916 230.022ZM630.53 327.468L631.099 342.178L630.53 327.468ZM590.91 319.075L597.558 305.94L584.191 299.175L577.661 312.658L590.91 319.075ZM580.042 332.777L589.262 344.253L589.262 344.253L580.042 332.777ZM530.57 326.269L518.447 334.618L518.447 334.618L530.57 326.269ZM524.64 311.67L539.137 309.117L535.341 287.556L516.806 299.207L524.64 311.67ZM496.81 323.76L493.131 309.507L481.435 312.525L482.112 324.585L496.81 323.76ZM496.659 336.81L511.336 337.95V337.95L496.659 336.81ZM399.275 434.257L399.843 448.967H399.843L399.275 434.257ZM327.605 395.388L340.348 388.018L334.997 378.767L324.544 380.989L327.605 395.388ZM289.225 400.158L289.793 414.867L289.225 400.158ZM157.239 342.004L170.611 335.848L162.821 318.926L148.159 330.418L157.239 342.004ZM101.267 363.243L101.835 377.953H101.835L101.267 363.243ZM18.4836 272.76L3.80713 271.62L3.80712 271.62L18.4836 272.76ZM36.051 222.403L48.3195 230.538L54.7618 220.822L46.7814 212.325L36.051 222.403ZM14.8068 90.8509L2.80596 82.3257H2.80596L14.8068 90.8509ZM149.653 69.4271L143.292 82.7027L161.237 91.3005L164.208 71.6252L149.653 69.4271ZM164.179 43.9163L154.959 32.4403V32.4403L164.179 43.9163ZM213.651 50.4241L225.775 42.0751L225.775 42.075L213.651 50.4241ZM215.517 53.4456L202.631 60.5635L211.679 76.9432L225.468 64.293L215.517 53.4456ZM277.915 26.7571L277.347 12.0474L277.915 26.7571ZM358.721 89.0276L344.369 92.3037L373.25 91.3933L358.721 89.0276ZM455.088 0.0657304L455.657 14.7754C487.123 13.5592 512.106 32.8149 520.46 61.4382L534.591 57.3138L548.722 53.1894C536.719 12.065 499.958 -16.4003 454.52 -14.644L455.088 0.0657304ZM534.591 57.3138L540.408 70.8363C557.044 63.6795 575.812 58.9981 595.547 57.7L594.581 43.011L593.615 28.3221C570.512 29.8416 548.466 35.3199 528.774 43.7913L534.591 57.3138ZM594.581 43.011L595.547 57.7C628.737 55.5171 657.262 63.3616 676.706 76.6618C695.975 89.8429 705.916 107.881 704.867 127.73L719.568 128.506L734.268 129.282C735.962 97.1931 719.295 70.1238 693.328 52.3616C667.536 34.7187 632.196 25.7846 593.615 28.3221L594.581 43.011ZM719.568 128.506L704.867 127.73C704.332 137.871 700.986 148.062 694.989 157.894L707.557 165.559L720.124 173.224C728.304 159.814 733.441 144.945 734.268 129.283L719.568 128.506ZM707.557 165.559L696.533 175.314C708.184 188.482 714.924 207.201 713.24 228.881L727.916 230.022L742.593 231.162C744.862 201.954 735.796 175.258 718.581 155.804L707.557 165.559ZM727.916 230.022L713.24 228.881C709.745 273.853 671.736 311.144 629.962 312.758L630.53 327.468L631.099 342.178C688.829 339.946 738.022 289.981 742.593 231.162L727.916 230.022ZM630.53 327.468L629.962 312.758C617.889 313.225 606.936 310.687 597.558 305.94L590.91 319.075L584.263 332.209C598.193 339.259 614.124 342.834 631.099 342.178L630.53 327.468ZM590.91 319.075L577.661 312.658C576.047 315.991 573.743 318.954 570.823 321.301L580.042 332.777L589.262 344.253C595.749 339.041 600.736 332.559 604.159 325.491L590.91 319.075ZM580.042 332.777L570.823 321.301C561.165 329.06 548.928 326.972 542.694 317.92L530.57 326.269L518.447 334.618C534.864 358.457 566.926 362.197 589.262 344.253L580.042 332.777ZM530.57 326.269L542.694 317.92C540.893 315.303 539.701 312.315 539.137 309.117L524.64 311.67L510.142 314.223C511.397 321.346 514.118 328.332 518.447 334.618L530.57 326.269ZM524.64 311.67L516.806 299.207C509.387 303.87 501.406 307.37 493.131 309.507L496.81 323.76L500.489 338.014C511.862 335.078 522.629 330.321 532.474 324.133L524.64 311.67ZM496.81 323.76L482.112 324.585C482.314 328.175 482.278 331.875 481.983 335.669L496.659 336.81L511.336 337.95C511.731 332.865 511.783 327.852 511.507 322.935L496.81 323.76ZM496.659 336.81L481.983 335.669C478.488 380.641 440.48 417.932 398.706 419.547L399.275 434.257L399.843 448.967C457.573 446.735 506.765 396.769 511.336 337.95L496.659 336.81ZM399.275 434.257L398.706 419.547C372.999 420.541 351.854 407.914 340.348 388.018L327.605 395.388L314.862 402.758C331.762 431.979 363.082 450.388 399.843 448.967L399.275 434.257ZM327.605 395.388L324.544 380.989C313.043 383.434 301.005 384.97 288.656 385.448L289.225 400.158L289.793 414.867C303.834 414.324 317.539 412.577 330.665 409.787L327.605 395.388ZM289.225 400.158L288.656 385.448C227.829 387.799 183.628 364.124 170.611 335.848L157.239 342.004L143.868 348.16C164.143 392.204 223.674 417.423 289.793 414.867L289.225 400.158ZM157.239 342.004L148.159 330.418C134.258 341.313 117.746 347.875 100.698 348.534L101.267 363.243L101.835 377.953C125.74 377.029 148.095 367.874 166.32 353.59L157.239 342.004ZM101.267 363.243L100.698 348.534C60.4737 350.089 29.7521 317.759 33.16 273.9L18.4836 272.76L3.80712 271.62C-0.849862 331.552 42.5556 380.245 101.835 377.953L101.267 363.243ZM18.4836 272.76L33.16 273.901C34.3753 258.261 39.8096 243.371 48.3195 230.538L36.051 222.403L23.7825 214.267C12.6917 230.993 5.4364 250.653 3.80713 271.62L18.4836 272.76ZM36.051 222.403L46.7814 212.325C12.2122 175.517 5.77289 128.987 26.8077 99.376L14.8068 90.8509L2.80596 82.3257C-29.0778 127.208 -15.1963 189.339 25.3206 232.48L36.051 222.403ZM14.8068 90.8509L26.8077 99.376C48.3493 69.052 96.1981 60.139 143.292 82.7027L149.653 69.4271L156.013 56.1515C101.006 29.7962 35.4936 36.3114 2.80596 82.3257L14.8068 90.8509ZM149.653 69.4271L164.208 71.6252C165.161 65.3166 168.37 59.4319 173.398 55.3923L164.179 43.9163L154.959 32.4403C143.805 41.4017 137.08 54.0942 135.097 67.2289L149.653 69.4271ZM164.179 43.9163L173.398 55.3923C183.057 47.6332 195.293 49.7212 201.527 58.7733L213.651 50.4241L225.775 42.075C209.357 18.2351 177.295 14.4962 154.959 32.4403L164.179 43.9163ZM213.651 50.4241L201.527 58.7732C201.918 59.3412 202.286 59.938 202.631 60.5635L215.517 53.4456L228.402 46.3277C227.609 44.8926 226.736 43.4712 225.775 42.0751L213.651 50.4241ZM215.517 53.4456L225.468 64.293C240.383 50.6096 259.091 42.2165 278.484 41.4669L277.915 26.7571L277.347 12.0474C250.159 13.0984 224.982 24.7845 205.565 42.5983L215.517 53.4456ZM277.915 26.7571L278.484 41.4669C311.384 40.1951 337.3 61.3345 344.369 92.3037L358.721 89.0276L373.072 85.7515C362.984 41.5584 324.989 10.2058 277.347 12.0474L277.915 26.7571ZM358.721 89.0276L373.25 91.3933C380.055 49.6029 416.245 16.2989 455.657 14.7754L455.088 0.0657304L454.519 -14.644C399.901 -12.5327 353.046 32.2822 344.192 86.6619L358.721 89.0276Z" fill="#312783" mask="url(#path-1-inside-1_223_110)"/>
</svg>
