<svg width="825" height="550" viewBox="0 0 825 550" fill="none" xmlns="http://www.w3.org/2000/svg">
<ellipse cx="135.251" cy="156.388" rx="135.251" ry="156.388" transform="matrix(0.730724 0.682673 -0.69336 0.720592 405.914 0)" fill="white"/>
<ellipse cx="152.371" cy="177.647" rx="152.371" ry="177.647" transform="matrix(0.599496 0.800378 -0.808747 0.588157 642.012 96.6465)" fill="white"/>
<ellipse cx="127.929" cy="178.336" rx="127.929" ry="178.336" transform="matrix(-0.30076 0.9537 -0.956181 -0.292777 417.992 251.92)" fill="white"/>
<ellipse cx="62.5124" cy="87.1439" rx="62.5124" ry="87.1439" transform="matrix(-0.30076 0.9537 -0.956181 -0.292777 343.328 392.938)" fill="white"/>
<ellipse cx="396.304" cy="375.183" rx="136.016" ry="120.805" transform="rotate(-180 396.304 375.183)" fill="white"/>
<path d="M497.68 361.867L493.133 352.963" stroke="#312783" stroke-width="11.949" stroke-linecap="round"/>
<path d="M538.108 331.077L521.727 327.598" stroke="#312783" stroke-width="11.949" stroke-linecap="round"/>
<path d="M490.175 335.195C476.77 340.377 462.531 336.482 462.531 336.482L510.414 299.032C510.414 299.032 503.58 330.013 490.175 335.195Z" fill="#312783" stroke="#312783" stroke-width="16.9278" stroke-linecap="round"/>
<path d="M424.685 375.027C424.685 375.027 432.833 345.641 475.563 312.989C518.292 280.336 546.559 283.579 546.559 283.579" stroke="#312783" stroke-width="16.9278" stroke-linecap="round"/>
<path d="M298.327 368.884L302.031 359.596" stroke="#312783" stroke-width="11.949" stroke-linecap="round"/>
<path d="M255.214 341.984L271.203 336.998" stroke="#312783" stroke-width="11.949" stroke-linecap="round"/>
<path d="M303.196 341.647C317.022 345.562 330.84 340.361 330.84 340.361L279.7 307.519C279.7 307.519 289.369 337.733 303.196 341.647Z" fill="#312783" stroke="#312783" stroke-width="16.9278" stroke-linecap="round"/>
<path d="M372.216 375.214C372.216 375.214 361.385 346.712 315.819 318.169C270.254 289.626 242.408 295.481 242.408 295.481" stroke="#312783" stroke-width="16.9278" stroke-linecap="round"/>
</svg>
