<svg width="3732" height="216" viewBox="0 0 3732 216" fill="none" xmlns="http://www.w3.org/2000/svg">
<g clip-path="url(#clip0_232_426)">
<rect width="3732" height="216" rx="18" fill="#312783"/>
<rect width="108" height="108" fill="white"/>
<rect x="108" y="108" width="108" height="108" fill="white"/>
<rect x="867" width="108" height="108" fill="white"/>
<rect x="975" y="108" width="108" height="108" fill="white"/>
<rect x="433" width="108" height="108" fill="white"/>
<rect x="541" y="108" width="108" height="108" fill="white"/>
<rect x="1300" width="108" height="108" fill="white"/>
<rect x="1409" y="108" width="108" height="108" fill="white"/>
<rect x="216" width="108" height="108" fill="white"/>
<rect x="325" y="108" width="108" height="108" fill="white"/>
<rect x="1084" width="108" height="108" fill="white"/>
<rect x="1192" y="108" width="108" height="108" fill="white"/>
<rect x="650" width="108" height="108" fill="white"/>
<rect x="758" y="108" width="108" height="108" fill="white"/>
<rect x="1517" width="108" height="108" fill="white"/>
<rect x="1626" y="108" width="108" height="108" fill="white"/>
<rect x="1734" width="108" height="108" fill="white"/>
<rect x="1843" y="108" width="108" height="108" fill="white"/>
<rect x="1951" width="108" height="108" fill="white"/>
<rect x="2059" y="108" width="108" height="108" fill="white"/>
<rect x="2818" width="108" height="108" fill="white"/>
<rect x="2926" y="108" width="108" height="108" fill="white"/>
<rect x="2384" width="108" height="108" fill="white"/>
<rect x="2492" y="108" width="108" height="108" fill="white"/>
<rect x="3251" width="108" height="108" fill="white"/>
<rect x="3360" y="108" width="108" height="108" fill="white"/>
<rect x="2167" width="108" height="108" fill="white"/>
<rect x="2276" y="108" width="108" height="108" fill="white"/>
<rect x="3035" width="108" height="108" fill="white"/>
<rect x="3143" y="108" width="108" height="108" fill="white"/>
<rect x="2601" width="108" height="108" fill="white"/>
<rect x="2709" y="108" width="108" height="108" fill="white"/>
<rect x="3468" width="108" height="108" fill="white"/>
<rect x="3577" y="108" width="108" height="108" fill="white"/>
<rect x="3685" width="108" height="108" fill="white"/>
</g>
<defs>
<clipPath id="clip0_232_426">
<rect width="3732" height="216" rx="18" fill="white"/>
</clipPath>
</defs>
</svg>
