<svg width="6750" height="252" viewBox="0 0 6750 252" fill="none" xmlns="http://www.w3.org/2000/svg">
<rect width="6750" height="252" fill="white"/>
<path d="M835.327 198.968L835.957 180.855" stroke="#055FD2" stroke-width="21.6594" stroke-linecap="round"/>
<path d="M745.296 179.45L769.523 161.16" stroke="#055FD2" stroke-width="21.6594" stroke-linecap="round"/>
<path d="M826.133 150.215C852.122 148.432 872.513 131.104 872.513 131.104L765.135 106.372C765.135 106.372 800.143 151.998 826.133 150.215Z" fill="#055FD2" stroke="#055FD2" stroke-width="30.6842" stroke-linecap="round"/>
<path d="M965.28 164.535C965.28 164.535 929.339 122.539 834.106 101.73C738.873 80.9198 694.948 107.947 694.948 107.947" stroke="#055FD2" stroke-width="30.6842" stroke-linecap="round"/>
<path d="M1155.03 198.968L1154.4 180.855" stroke="#055FD2" stroke-width="21.6594" stroke-linecap="round"/>
<path d="M1245.06 179.45L1220.83 161.16" stroke="#055FD2" stroke-width="21.6594" stroke-linecap="round"/>
<path d="M1164.21 150.215C1138.22 148.432 1117.83 131.104 1117.83 131.104L1225.21 106.372C1225.21 106.372 1190.2 151.998 1164.21 150.215Z" fill="#055FD2" stroke="#055FD2" stroke-width="30.6842" stroke-linecap="round"/>
<path d="M1025.07 164.535C1025.07 164.535 1057.55 112.855 1152.79 92.0454C1248.02 71.2356 1295.4 107.946 1295.4 107.946" stroke="#055FD2" stroke-width="30.6842" stroke-linecap="round"/>
<path d="M6270.17 197.968L6270.8 179.855" stroke="#055FD2" stroke-width="21.6594" stroke-linecap="round"/>
<path d="M6180.14 178.45L6204.37 160.16" stroke="#055FD2" stroke-width="21.6594" stroke-linecap="round"/>
<path d="M6260.98 149.215C6286.97 147.432 6307.36 130.104 6307.36 130.104L6199.98 105.372C6199.98 105.372 6234.99 150.998 6260.98 149.215Z" fill="#055FD2" stroke="#055FD2" stroke-width="30.6842" stroke-linecap="round"/>
<path d="M6400.12 163.535C6400.12 163.535 6364.18 121.539 6268.95 100.73C6173.72 79.9198 6129.79 106.947 6129.79 106.947" stroke="#055FD2" stroke-width="30.6842" stroke-linecap="round"/>
<path d="M6589.87 197.968L6589.24 179.855" stroke="#055FD2" stroke-width="21.6594" stroke-linecap="round"/>
<path d="M6679.9 178.45L6655.67 160.16" stroke="#055FD2" stroke-width="21.6594" stroke-linecap="round"/>
<path d="M6599.05 149.215C6573.06 147.432 6552.67 130.104 6552.67 130.104L6660.05 105.372C6660.05 105.372 6625.04 150.998 6599.05 149.215Z" fill="#055FD2" stroke="#055FD2" stroke-width="30.6842" stroke-linecap="round"/>
<path d="M6459.91 163.535C6459.91 163.535 6492.39 111.855 6587.63 91.0454C6682.86 70.2356 6730.24 106.946 6730.24 106.946" stroke="#055FD2" stroke-width="30.6842" stroke-linecap="round"/>
<path d="M159.545 198.422L160.176 180.309" stroke="#055FD2" stroke-width="21.6594" stroke-linecap="round"/>
<path d="M69.5151 178.903L93.7422 160.613" stroke="#055FD2" stroke-width="21.6594" stroke-linecap="round"/>
<path d="M150.352 149.668C176.341 147.885 196.731 130.557 196.731 130.557L89.3537 105.825C89.3537 105.825 124.362 151.451 150.352 149.668Z" fill="#055FD2" stroke="#055FD2" stroke-width="30.6842" stroke-linecap="round"/>
<path d="M289.499 163.989C289.499 163.989 253.558 121.992 158.325 101.183C63.0922 80.3729 19.1663 107.4 19.1663 107.4" stroke="#055FD2" stroke-width="30.6842" stroke-linecap="round"/>
<path d="M479.244 198.422L478.613 180.309" stroke="#055FD2" stroke-width="21.6594" stroke-linecap="round"/>
<path d="M569.27 178.903L545.043 160.613" stroke="#055FD2" stroke-width="21.6594" stroke-linecap="round"/>
<path d="M488.426 150.668C462.436 148.885 442.046 131.557 442.046 131.557L549.424 106.825C549.424 106.825 514.415 152.451 488.426 150.668Z" fill="#055FD2" stroke="#055FD2" stroke-width="30.6842" stroke-linecap="round"/>
<path d="M349.283 163.989C349.283 163.989 385.224 121.992 480.456 101.183C575.689 80.3729 619.615 107.4 619.615 107.4" stroke="#055FD2" stroke-width="30.6842" stroke-linecap="round"/>
<path d="M1511.74 198.8L1512.37 180.688" stroke="#055FD2" stroke-width="21.6594" stroke-linecap="round"/>
<path d="M1421.71 179.282L1445.94 160.992" stroke="#055FD2" stroke-width="21.6594" stroke-linecap="round"/>
<path d="M1502.55 150.047C1528.54 148.264 1548.93 130.936 1548.93 130.936L1441.55 106.204C1441.55 106.204 1476.56 151.83 1502.55 150.047Z" fill="#055FD2" stroke="#055FD2" stroke-width="30.6842" stroke-linecap="round"/>
<path d="M1641.69 164.367C1641.69 164.367 1605.75 122.371 1510.52 101.562C1415.29 80.7518 1371.36 107.779 1371.36 107.779" stroke="#055FD2" stroke-width="30.6842" stroke-linecap="round"/>
<path d="M1831.44 198.8L1830.81 180.688" stroke="#055FD2" stroke-width="21.6594" stroke-linecap="round"/>
<path d="M1921.47 179.282L1897.24 160.992" stroke="#055FD2" stroke-width="21.6594" stroke-linecap="round"/>
<path d="M1840.62 151.046C1814.63 149.263 1785.21 117.878 1785.21 117.878L1848.71 83.3788L1907.71 96.8779C1907.71 96.8779 1866.61 152.828 1840.62 151.046Z" fill="#055FD2" stroke="#055FD2" stroke-width="30.6842" stroke-linecap="round"/>
<path d="M1701.48 164.368C1701.48 164.368 1750.97 95.6896 1846.2 74.8798C1941.44 54.07 1971.81 107.78 1971.81 107.78" stroke="#055FD2" stroke-width="30.6842" stroke-linecap="round"/>
<path d="M5589.7 198.8L5590.33 180.688" stroke="#055FD2" stroke-width="21.6594" stroke-linecap="round"/>
<path d="M5499.67 179.282L5523.89 160.992" stroke="#055FD2" stroke-width="21.6594" stroke-linecap="round"/>
<path d="M5580.5 150.047C5606.49 148.264 5626.88 130.936 5626.88 130.936L5519.51 106.204C5519.51 106.204 5554.51 151.83 5580.5 150.047Z" fill="#055FD2" stroke="#055FD2" stroke-width="30.6842" stroke-linecap="round"/>
<path d="M5719.65 164.367C5719.65 164.367 5683.71 122.371 5588.48 101.562C5493.24 80.7518 5449.32 107.779 5449.32 107.779" stroke="#055FD2" stroke-width="30.6842" stroke-linecap="round"/>
<path d="M5909.39 198.8L5908.76 180.688" stroke="#055FD2" stroke-width="21.6594" stroke-linecap="round"/>
<path d="M5999.42 179.282L5975.19 160.992" stroke="#055FD2" stroke-width="21.6594" stroke-linecap="round"/>
<path d="M5918.57 151.046C5892.59 149.263 5863.17 117.878 5863.17 117.878L5926.66 83.3788L5985.66 96.8779C5985.66 96.8779 5944.56 152.828 5918.57 151.046Z" fill="#055FD2" stroke="#055FD2" stroke-width="30.6842" stroke-linecap="round"/>
<path d="M5779.43 164.368C5779.43 164.368 5828.93 95.6896 5924.16 74.8798C6019.39 54.07 6049.76 107.78 6049.76 107.78" stroke="#055FD2" stroke-width="30.6842" stroke-linecap="round"/>
<path d="M2192.42 198.324L2193.05 180.211" stroke="#055FD2" stroke-width="21.6594" stroke-linecap="round"/>
<path d="M2102.39 178.806L2126.62 160.516" stroke="#055FD2" stroke-width="21.6594" stroke-linecap="round"/>
<path d="M2183.23 149.569C2209.22 147.786 2229.61 130.457 2229.61 130.457L2122.23 105.725C2122.23 105.725 2157.24 151.351 2183.23 149.569Z" fill="#055FD2" stroke="#055FD2" stroke-width="30.6842" stroke-linecap="round"/>
<path d="M2322.37 163.892C2322.37 163.892 2290.16 116.831 2194.93 96.0212C2099.69 75.2114 2052.04 107.304 2052.04 107.304" stroke="#055FD2" stroke-width="30.6842" stroke-linecap="round"/>
<path d="M2512.13 198.324L2511.5 180.211" stroke="#055FD2" stroke-width="21.6594" stroke-linecap="round"/>
<path d="M2602.15 178.806L2577.93 160.516" stroke="#055FD2" stroke-width="21.6594" stroke-linecap="round"/>
<path d="M2521.31 149.569C2495.32 147.786 2465.9 116.401 2465.9 116.401L2529.4 81.9023L2588.4 95.4014C2588.4 95.4014 2547.3 151.352 2521.31 149.569Z" fill="#055FD2" stroke="#055FD2" stroke-width="30.6842" stroke-linecap="round"/>
<path d="M2382.17 163.89C2382.17 163.89 2417.68 94.3283 2512.91 73.5185C2608.15 52.7087 2652.5 107.302 2652.5 107.302" stroke="#055FD2" stroke-width="30.6842" stroke-linecap="round"/>
<path d="M4910.25 199.324L4910.88 181.211" stroke="#055FD2" stroke-width="21.6594" stroke-linecap="round"/>
<path d="M4820.22 179.806L4844.45 161.516" stroke="#055FD2" stroke-width="21.6594" stroke-linecap="round"/>
<path d="M4901.05 150.569C4927.04 148.786 4947.43 131.457 4947.43 131.457L4840.06 106.725C4840.06 106.725 4875.06 152.351 4901.05 150.569Z" fill="#055FD2" stroke="#055FD2" stroke-width="30.6842" stroke-linecap="round"/>
<path d="M5040.2 164.892C5040.2 164.892 5007.98 117.831 4912.75 97.0212C4817.52 76.2114 4769.87 108.304 4769.87 108.304" stroke="#055FD2" stroke-width="30.6842" stroke-linecap="round"/>
<path d="M5229.95 199.324L5229.32 181.211" stroke="#055FD2" stroke-width="21.6594" stroke-linecap="round"/>
<path d="M5319.97 179.806L5295.75 161.516" stroke="#055FD2" stroke-width="21.6594" stroke-linecap="round"/>
<path d="M5239.13 150.569C5213.14 148.786 5183.72 117.401 5183.72 117.401L5247.22 82.9023L5306.22 96.4014C5306.22 96.4014 5265.12 152.352 5239.13 150.569Z" fill="#055FD2" stroke="#055FD2" stroke-width="30.6842" stroke-linecap="round"/>
<path d="M5099.99 164.89C5099.99 164.89 5135.5 95.3283 5230.73 74.5185C5325.97 53.7087 5370.32 108.302 5370.32 108.302" stroke="#055FD2" stroke-width="30.6842" stroke-linecap="round"/>
<path d="M2871.82 199.324L2872.45 181.211" stroke="#055FD2" stroke-width="21.6594" stroke-linecap="round"/>
<path d="M2781.79 182.806L2806.02 164.516" stroke="#055FD2" stroke-width="21.6594" stroke-linecap="round"/>
<path d="M2849.63 150.569C2875.62 148.786 2896.01 131.457 2896.01 131.457L2792.56 110.5C2792.56 110.5 2823.64 152.352 2849.63 150.569Z" fill="#055FD2" stroke="#055FD2" stroke-width="30.6842" stroke-linecap="round"/>
<path d="M3001.77 164.89C3001.77 164.89 2975.79 120.309 2880.56 99.4996C2785.33 78.6898 2731.44 108.302 2731.44 108.302" stroke="#055FD2" stroke-width="30.6842" stroke-linecap="round"/>
<path d="M3191.51 199.324L3190.88 181.211" stroke="#055FD2" stroke-width="21.6594" stroke-linecap="round"/>
<path d="M3281.54 179.806L3257.31 161.516" stroke="#055FD2" stroke-width="21.6594" stroke-linecap="round"/>
<path d="M3188.7 150.569C3162.71 148.786 3133.29 117.401 3133.29 117.401L3196.78 82.9023L3255.78 96.4014C3255.78 96.4014 3214.69 152.352 3188.7 150.569Z" fill="#055FD2" stroke="#055FD2" stroke-width="30.6842" stroke-linecap="round"/>
<path d="M3061.55 164.89C3061.55 164.89 3097.07 95.3283 3192.3 74.5185C3287.53 53.7087 3331.89 108.302 3331.89 108.302" stroke="#055FD2" stroke-width="30.6842" stroke-linecap="round"/>
<path d="M4230.58 199.324L4231.21 181.211" stroke="#055FD2" stroke-width="21.6594" stroke-linecap="round"/>
<path d="M4140.55 182.806L4164.78 164.516" stroke="#055FD2" stroke-width="21.6594" stroke-linecap="round"/>
<path d="M4208.39 150.569C4234.38 148.786 4254.77 131.457 4254.77 131.457L4151.32 110.5C4151.32 110.5 4182.4 152.352 4208.39 150.569Z" fill="#055FD2" stroke="#055FD2" stroke-width="30.6842" stroke-linecap="round"/>
<path d="M4360.54 164.89C4360.54 164.89 4334.56 120.309 4239.33 99.4996C4144.09 78.6898 4090.2 108.302 4090.2 108.302" stroke="#055FD2" stroke-width="30.6842" stroke-linecap="round"/>
<path d="M4550.28 199.324L4549.65 181.211" stroke="#055FD2" stroke-width="21.6594" stroke-linecap="round"/>
<path d="M4640.31 179.806L4616.08 161.516" stroke="#055FD2" stroke-width="21.6594" stroke-linecap="round"/>
<path d="M4547.47 150.569C4521.48 148.786 4492.06 117.401 4492.06 117.401L4555.55 82.9023L4614.55 96.4014C4614.55 96.4014 4573.46 152.352 4547.47 150.569Z" fill="#055FD2" stroke="#055FD2" stroke-width="30.6842" stroke-linecap="round"/>
<path d="M4420.32 164.89C4420.32 164.89 4455.84 95.3283 4551.07 74.5185C4646.3 53.7087 4690.66 108.302 4690.66 108.302" stroke="#055FD2" stroke-width="30.6842" stroke-linecap="round"/>
<path d="M3545.2 198.324L3545.83 180.211" stroke="#055FD2" stroke-width="21.6594" stroke-linecap="round"/>
<path d="M3455.17 181.806L3479.4 163.516" stroke="#055FD2" stroke-width="21.6594" stroke-linecap="round"/>
<path d="M3519.01 149.569C3545 147.786 3565.39 130.457 3565.39 130.457L3461.94 109.5C3461.94 109.5 3493.02 151.352 3519.01 149.569Z" fill="#055FD2" stroke="#055FD2" stroke-width="30.6842" stroke-linecap="round"/>
<path d="M3681.15 163.89C3681.15 163.89 3655.18 119.309 3559.94 98.4996C3464.71 77.6898 3410.82 107.302 3410.82 107.302" stroke="#055FD2" stroke-width="30.6842" stroke-linecap="round"/>
<path d="M3870.9 198.324L3870.27 180.211" stroke="#055FD2" stroke-width="21.6594" stroke-linecap="round"/>
<path d="M3960.93 178.806L3936.7 160.516" stroke="#055FD2" stroke-width="21.6594" stroke-linecap="round"/>
<path d="M3850.08 149.569C3824.09 147.786 3794.67 116.401 3794.67 116.401L3858.17 81.9023L3917.17 95.4014C3917.17 95.4014 3876.07 151.352 3850.08 149.569Z" fill="#055FD2" stroke="#055FD2" stroke-width="30.6842" stroke-linecap="round"/>
<path d="M3740.94 163.89C3740.94 163.89 3776.45 94.3283 3871.69 73.5185C3966.92 52.7087 4011.27 107.302 4011.27 107.302" stroke="#055FD2" stroke-width="30.6842" stroke-linecap="round"/>
</svg>
