<svg width="632" height="231" viewBox="0 0 632 231" fill="none" xmlns="http://www.w3.org/2000/svg">
<path d="M155.725 178.422L156.355 160.309" stroke="#055FD2" stroke-width="21.6594" stroke-linecap="round"/>
<path d="M65.6948 158.903L89.9219 140.613" stroke="#055FD2" stroke-width="21.6594" stroke-linecap="round"/>
<path d="M146.531 129.668C172.521 127.885 192.911 110.557 192.911 110.557L85.5333 85.825C85.5333 85.825 120.542 131.451 146.531 129.668Z" fill="#055FD2" stroke="#055FD2" stroke-width="30.6842" stroke-linecap="round"/>
<path d="M285.678 143.989C285.678 143.989 249.737 101.992 154.505 81.1827C59.2719 60.3729 15.346 87.4002 15.346 87.4002" stroke="#055FD2" stroke-width="30.6842" stroke-linecap="round"/>
<path d="M475.427 178.422L474.797 160.309" stroke="#055FD2" stroke-width="21.6594" stroke-linecap="round"/>
<path d="M565.454 158.903L541.227 140.613" stroke="#055FD2" stroke-width="21.6594" stroke-linecap="round"/>
<path d="M484.609 130.668C458.62 128.885 438.23 111.557 438.23 111.557L545.607 86.825C545.607 86.825 510.599 132.451 484.609 130.668Z" fill="#055FD2" stroke="#055FD2" stroke-width="30.6842" stroke-linecap="round"/>
<path d="M345.466 143.989C345.466 143.989 381.407 101.992 476.64 81.1827C571.873 60.3729 615.799 87.4002 615.799 87.4002" stroke="#055FD2" stroke-width="30.6842" stroke-linecap="round"/>
</svg>
