<svg width="322" height="8" viewBox="0 0 322 8" fill="none" xmlns="http://www.w3.org/2000/svg">
<path d="M318 8H322V0H318V4V8ZM0 4L0 8H19.5692V4V0H0L0 4ZM44.0308 4V8H83.1692V4V0H44.0308V4ZM107.631 4V8H146.769V4V0H107.631V4ZM171.231 4V8H210.369V4V0H171.231V4ZM234.831 4V8H273.969V4V0H234.831V4ZM298.431 4V8H318V4V0H298.431V4ZM318 8H322V0H318V4V8ZM0 4L0 8H19.5692V4V0H0L0 4ZM44.0308 4V8H83.1692V4V0H44.0308V4ZM107.631 4V8H146.769V4V0H107.631V4ZM171.231 4V8H210.369V4V0H171.231V4ZM234.831 4V8H273.969V4V0H234.831V4ZM298.431 4V8H318V4V0H298.431V4Z" fill="#C3FB4F"/>
</svg>
