<svg width="3840" height="218" viewBox="0 0 3840 218" fill="none" xmlns="http://www.w3.org/2000/svg">
<g clip-path="url(#clip0_232_490)">
<path d="M-123.763 110.02C-82.876 48.6699 2.25253 13.5724 88.252 20.7559C132.197 24.4267 182.976 42.8915 211.151 72.1494C248.846 56.1599 288.948 38.5615 330.028 33.4375C373.447 28.0236 418.212 31.3927 456.649 48.8154C470.03 54.8786 482.565 62.523 493.278 71.4883C527.382 55.8571 565.083 32.1706 602.883 27.8789C669.821 20.2763 764.045 23.9924 803.304 72.5625C834.333 61.3985 866.964 53.1203 900.175 47.415C944.454 39.8102 977.732 38.7093 1022.92 39.1445C1067.39 39.57 1125.65 48.5778 1160.82 71.6709C1164.39 74.0167 1167.87 76.6239 1171.19 79.4453C1204.65 71.0312 1239.53 66.6221 1274.11 62.5156C1324.04 56.5885 1375.33 61.3392 1425.67 66.6475C1433.63 67.4867 1441.65 68.9168 1449.33 70.9814C1478.97 58.2212 1511.95 54.0399 1545.5 48.1396C1586.05 41.01 1629.24 37.6253 1670.45 41.6846C1702.4 44.8331 1734.41 54.8332 1756.48 73.3506C1813.57 48.8055 1878.22 35.8151 1943 36.3359V35.7568C1956.29 34.8637 1969.76 34.9499 1983.26 36.0771C2027.2 39.7481 2077.98 58.2131 2106.16 87.4707C2143.85 71.4812 2183.95 53.8828 2225.03 48.7588C2268.45 43.3448 2313.22 46.7139 2351.66 64.1367C2365.04 70.1998 2377.57 77.8435 2388.29 86.8086C2422.39 71.1775 2460.09 47.492 2497.89 43.2002C2564.83 35.5976 2659.05 39.3141 2698.31 87.8838C2729.34 76.7198 2761.97 68.4416 2795.18 62.7363C2839.46 55.1315 2872.74 54.0306 2917.92 54.4658C2962.39 54.8913 3020.65 63.8993 3055.83 86.9922C3059.4 89.3379 3062.88 91.9454 3066.19 94.7666C3099.66 86.3524 3134.54 81.9433 3169.12 77.8369C3219.05 71.9098 3270.33 76.6605 3320.68 81.9688C3328.63 82.808 3336.66 84.238 3344.34 86.3027C3373.98 73.5428 3406.96 69.3611 3440.51 63.4609C3481.06 56.3313 3524.25 52.9466 3565.45 57.0059C3597.94 60.2062 3630.47 70.4867 3652.56 89.5947C3730.15 56.7467 3830.75 29.9264 3840 27.999C3852 25.499 3852 37.001 3840 40.999C3828.01 44.9971 3766 60.1768 3730 72.501C3704.98 81.0669 3682.94 88.8566 3661.3 98.2607C3663.52 100.793 3665.57 103.45 3667.44 106.234C3685.35 132.918 3679.28 164.42 3651.12 185.35C3627.53 202.887 3580.41 215.252 3554.17 194.407C3522.9 169.571 3569.4 134.904 3592.45 120.006C3605.13 111.814 3620.97 103.646 3638.47 95.7471C3593.41 58.8129 3509.37 64.7836 3450.91 74.2998C3421.92 79.0198 3392.64 85.0139 3365.85 94.3926C3383.1 103.202 3395.26 116.648 3395.06 135.534C3394.7 169.894 3358.2 193.469 3318.8 200.455C3301.65 203.498 3278.49 206.964 3264.7 196.031C3252.92 186.688 3254.11 171.535 3259.07 159.819C3270.12 133.727 3298.39 111.263 3326.41 95.3398C3316.99 93.879 3307.5 93.1839 3299.03 92.8711C3255.49 91.2611 3212.41 85.1164 3169.38 90.2246C3139.34 93.7904 3107.1 97.6575 3076.45 104.802C3093.72 124.289 3102.3 149.762 3086.97 171.41C3077.32 185.026 3059.54 192.51 3041.64 197.415C3025.17 201.93 3007.7 205.55 2990.21 205.093C2975.83 204.714 2959.73 201.728 2951.17 191.718C2939.64 178.226 2948.33 162.271 2959.23 150.4C2981.74 125.89 3014.49 109.835 3049.66 99.3037C3043.85 95.0389 3037.58 91.3212 3031.26 88.3037C2997.34 72.1075 2956.31 65.6938 2917.54 66.0156C2845.44 66.6121 2771.98 75.0316 2705.7 98.7148C2708.37 103.436 2710.6 108.505 2712.33 113.942C2721.33 142.185 2707.32 171.421 2674.61 185.775C2647.46 197.691 2600.67 196.463 2590.46 168.102C2584.87 152.589 2598.83 138.761 2612.91 129.401C2630.22 117.9 2649.48 108.025 2669.22 99.4219C2673.88 97.3916 2678.59 95.4343 2683.34 93.5479C2665.15 73.0639 2635.91 61.2138 2604.85 56.1211C2569.67 50.3529 2532.08 51.6163 2496.58 55.7852C2463.06 59.7253 2429.07 83.9621 2398.67 96.5381C2408.44 106.836 2415.85 118.484 2419.77 131.189C2424.26 145.71 2425.43 163.142 2415.15 176.453C2404.72 189.954 2381.88 196.558 2363.7 200.626C2344.09 205.013 2322.62 204.796 2306.33 194.189C2290.79 184.074 2287.56 168.709 2296.2 154.379C2311.61 128.799 2343.42 107.656 2374.27 93.1309C2359.39 81.3412 2340.94 72.2913 2321.39 66.543C2254.46 46.8679 2178.16 72.212 2114.85 97.8652C2126.05 113.525 2130.91 131.712 2125.85 151.947C2119.05 179.189 2092.65 205.48 2057.05 210.246C2040.56 212.452 2022.8 209.783 2009.74 201.28C1994.21 191.173 1991.98 175.519 1999.3 161.105C2015 130.182 2052.85 109.493 2088.65 94.8047C2089.71 94.3701 2090.77 93.9307 2091.83 93.4902C2081.59 82.945 2068.42 74.0673 2054.33 67.2783C2023.34 52.3403 1986.92 46.1311 1950.77 47.6338C1949.6 48.3499 1948.06 48.7824 1946.15 48.7549C1935.25 48.599 1924.36 48.8224 1913.52 49.4238C1912.81 49.4634 1912.09 49.504 1911.38 49.5469C1904.12 49.9832 1896.88 50.5908 1889.67 51.3701C1889.1 51.4315 1888.53 51.4941 1887.96 51.5576C1885.36 51.8496 1882.75 52.1648 1880.15 52.502C1879.48 52.5883 1878.82 52.6754 1878.15 52.7646C1875.57 53.111 1872.99 53.48 1870.42 53.8711C1868.31 54.1906 1866.21 54.5246 1864.12 54.874C1855.81 56.2592 1847.55 57.8772 1839.34 59.7354C1814.09 65.4586 1789.62 73.2766 1766.41 83.0654C1768.58 85.5605 1770.59 88.1749 1772.43 90.9131C1790.35 117.596 1784.28 149.099 1756.12 170.028C1756 170.115 1755.88 170.199 1755.76 170.286C1755.59 170.411 1755.42 170.536 1755.25 170.66C1755.05 170.801 1754.86 170.941 1754.66 171.081C1754.59 171.131 1754.52 171.181 1754.44 171.231C1730.35 188.116 1684.8 199.449 1659.17 179.086C1627.9 154.25 1674.39 119.583 1697.45 104.685C1711.71 95.4658 1726.79 87.1083 1742.51 79.6562C1697.23 43.5765 1613.95 49.53 1555.9 58.9795C1526.92 63.6995 1497.63 69.6926 1470.84 79.0713C1488.1 87.8807 1500.26 101.326 1500.06 120.213C1499.69 154.572 1463.19 178.148 1423.79 185.134C1406.64 188.176 1383.48 191.643 1369.7 180.71C1357.92 171.367 1359.1 156.214 1364.07 144.498C1375.12 118.406 1403.39 95.9418 1431.4 80.0186C1421.99 78.5578 1412.5 77.8636 1404.03 77.5508C1360.49 75.9408 1317.4 69.795 1274.37 74.9033C1244.34 78.4691 1212.1 82.3363 1181.45 89.4805C1198.72 108.968 1207.3 134.441 1191.96 156.089C1182.31 169.705 1164.54 177.189 1146.64 182.094C1130.17 186.609 1112.7 190.229 1095.2 189.771C1080.82 189.393 1064.72 186.407 1056.17 176.396C1044.64 162.905 1053.33 146.95 1064.23 135.08C1086.73 110.569 1119.48 94.5133 1154.66 83.9824C1148.84 79.7173 1142.57 76 1136.25 72.9824C1102.33 56.7862 1061.3 50.3725 1022.53 50.6943C950.434 51.2907 876.978 59.7103 810.69 83.3936C813.368 88.1144 815.598 93.1834 817.329 98.6211C826.321 126.864 812.315 156.1 779.602 170.454C752.45 182.37 705.667 181.142 695.449 152.78C689.861 137.267 703.823 123.44 717.905 114.08C735.218 102.578 754.478 92.705 774.215 84.1016C778.874 82.0712 783.581 80.1132 788.33 78.2266C770.14 57.7423 740.904 45.8926 709.845 40.7998C674.659 35.0316 637.072 36.2951 601.573 40.4639C568.052 44.404 534.062 68.6408 503.667 81.2168C513.436 91.5148 520.842 103.163 524.766 115.868C529.249 130.388 530.425 147.821 520.143 161.133C509.714 174.633 486.877 181.237 468.697 185.305C449.084 189.692 427.615 189.475 411.318 178.868C395.779 168.753 392.558 153.388 401.191 139.058C416.603 113.478 448.414 92.3352 479.26 77.8096C464.389 66.0196 445.936 56.9701 426.379 51.2217C359.453 31.5466 283.151 56.8906 219.842 82.5439C231.046 98.2037 235.904 116.391 230.848 136.626C224.046 163.868 197.648 190.159 162.042 194.925C145.554 197.131 127.798 194.461 114.733 185.959C99.2042 175.852 96.9775 160.198 104.298 145.784C119.999 114.86 157.839 94.1725 193.641 79.4844C194.7 79.0498 195.761 78.6095 196.824 78.1689C186.588 67.6236 173.41 58.7461 159.323 51.957C98.1261 22.4604 15.7888 26.9889 -43.9668 57.7471C-103.932 88.6171 -138.009 145.755 -133.473 201.851C-132.828 209.822 -148.377 210.104 -149.016 202.178C-151.594 170.355 -142.613 138.3 -123.763 110.02ZM2093.79 106.561C2063.11 119.406 2031.26 136.415 2015.66 162.065C2006.54 177.075 2011.3 191.614 2031.99 196.94C2046.62 200.705 2062.64 198.058 2075.55 191.619C2101.42 178.71 2116.2 151.853 2111.37 128.075C2109.6 119.405 2105.78 111.27 2100.45 103.781C2098.21 104.712 2095.99 105.64 2093.79 106.561ZM3060.84 108.781C3033.02 116.531 3007.12 127.538 2986.17 144.182C2975.33 152.796 2955.77 168.864 2962.35 182.146C2967.16 191.856 2983.86 192.938 2995.07 192.718C3009.54 192.433 3023.61 189.303 3037.26 185.562C3054.48 180.84 3071.51 173.392 3077 158.525C3083.6 140.635 3075.15 122.893 3060.84 108.781ZM3647.62 104.457C3642.71 106.776 3637.79 109.205 3632.83 111.772C3616.97 119.988 3601.89 129.139 3587.86 139.266C3575.67 148.061 3561.12 160.079 3560.18 173.974C3559.13 189.478 3581.75 193.239 3597.14 192.328C3612.54 191.417 3627.44 185.774 3638.93 177.58C3664.61 159.272 3669.17 131.557 3651.1 108.578C3649.98 107.16 3648.82 105.788 3647.62 104.457ZM2384.79 102.559C2360.6 113.803 2338.8 128.198 2321.55 145.918C2309.93 157.853 2298.46 173.817 2317.12 185.213C2333.6 195.275 2355.69 190.488 2373.34 184.911C2382.89 181.893 2393.88 178.592 2400.31 171.843C2405.7 166.186 2407.33 158.964 2407.43 152.034C2407.62 139.134 2402.93 126.179 2395.15 114.987C2392.11 110.623 2388.64 106.475 2384.79 102.559ZM3349.18 100.828C3324.84 111.199 3303.29 125.036 3286.93 144.159C3278.52 153.994 3269.59 165.869 3271.12 178.237C3273.25 195.322 3299.38 191.253 3314.41 188.598C3348.8 182.531 3384.5 161.215 3379.12 129.872C3376.6 115.172 3364.5 106.24 3349.18 100.828ZM205.445 88.46C203.206 89.3912 200.985 90.3186 198.786 91.2393C168.109 104.084 136.249 121.094 120.655 146.744C111.533 161.754 116.292 176.293 136.986 181.619C151.61 185.384 167.637 182.737 180.542 176.298C206.419 163.389 221.195 136.532 216.36 112.754C214.598 104.084 210.774 95.9484 205.445 88.46ZM2691.25 104.16C2676.69 109.932 2662.56 116.391 2649 123.556C2634.64 131.145 2616.01 139.861 2607.75 152.407C2598.4 166.599 2615.27 177.988 2631.65 180.468C2645.74 182.6 2660.46 178.812 2672.19 172.496C2701.22 156.863 2705.95 128.033 2691.25 104.16ZM1165.83 93.4609C1138.02 101.21 1112.12 112.216 1091.17 128.86C1080.33 137.475 1060.77 153.543 1067.34 166.825C1072.15 176.535 1088.85 177.616 1100.06 177.396C1114.53 177.112 1128.61 173.981 1142.25 170.24C1159.48 165.519 1176.5 158.071 1181.99 143.204C1188.59 125.314 1180.14 107.572 1165.83 93.4609ZM1752.64 89.168C1747.64 91.5011 1742.69 93.9294 1737.83 96.4512C1721.97 104.667 1706.88 113.817 1692.86 123.944C1680.67 132.74 1666.11 144.757 1665.17 158.652C1664.13 174.157 1686.75 177.918 1702.13 177.007C1717.53 176.096 1732.43 170.453 1743.92 162.259C1750.73 157.406 1756.05 151.89 1759.86 145.979C1759.87 145.974 1759.87 145.97 1759.87 145.965C1761.59 143.304 1762.99 140.562 1764.09 137.765C1764.1 137.76 1764.1 137.755 1764.1 137.75C1769.76 123.322 1767.21 107.393 1756.09 93.2568C1754.98 91.8499 1753.83 90.4889 1752.64 89.168ZM489.781 87.2383C465.598 98.4831 443.794 112.877 426.545 130.597C414.922 142.532 403.451 158.496 422.117 169.892C438.594 179.954 460.683 175.167 478.333 169.59C487.884 166.571 498.875 163.27 505.305 156.521C510.69 150.864 512.326 143.642 512.429 136.713C512.618 123.812 507.923 110.858 500.141 99.666C497.106 95.3015 493.63 91.155 489.781 87.2383ZM1454.18 85.5068C1429.84 95.8775 1408.28 109.715 1391.93 128.838C1383.52 138.673 1374.58 150.548 1376.12 162.916C1378.24 180.001 1404.37 175.931 1419.41 173.276C1453.8 167.21 1489.5 145.894 1484.12 114.551C1481.6 99.8503 1469.49 90.919 1454.18 85.5068ZM796.242 88.8389C781.687 94.6109 767.558 101.07 753.997 108.234C739.634 115.824 721.003 124.54 712.741 137.086C703.395 151.278 720.267 162.666 736.646 165.146C750.733 167.278 765.456 163.49 777.182 157.175C806.215 141.541 810.948 112.712 796.242 88.8389Z" fill="white"/>
</g>
<defs>
<clipPath id="clip0_232_490">
<rect width="3840" height="218" fill="white"/>
</clipPath>
</defs>
</svg>
