<svg width="114" height="72" viewBox="0 0 114 72" fill="none" xmlns="http://www.w3.org/2000/svg">
<path d="M74.0586 71.9121C66.6717 71.9121 60.2951 66.8097 57.3154 59.4277C53.3494 64.1547 48.1121 66.6125 43.1143 65.4502C37.864 64.2289 34.1418 59.3056 32.8242 52.8594C29.6073 54.4325 25.8735 55.332 21.8916 55.332C9.80093 55.332 -0.000907389 47.0334 -0.000976562 36.7959C-0.000976313 28.1456 6.99707 20.8802 16.4609 18.835C18.1879 8.19177 28.8034 0 41.6445 0C52.1401 2.51935e-05 61.1497 5.47266 65.0342 13.2832C69.1094 5.87283 77.8744 0.746094 88.0322 0.746094C102.078 0.746095 113.465 10.5464 113.465 22.6357C113.465 33.5787 104.135 42.6461 91.9492 44.2676C92.3712 46.1011 92.5967 48.0302 92.5967 50.0215C92.5967 62.111 84.2971 71.9121 74.0586 71.9121Z" fill="#055FD2"/>
</svg>
