<svg width="108" height="76" viewBox="0 0 108 76" fill="none" xmlns="http://www.w3.org/2000/svg">
<path d="M25.9592 73.3644C33.0939 75.2765 40.5733 71.9992 45.3624 65.6409C47.9695 71.2329 52.3913 74.963 57.5194 75.1343C62.9063 75.3141 67.7769 71.5231 70.7186 65.6388C73.4183 67.9902 76.7919 69.8245 80.637 70.8551C92.3154 73.985 103.931 68.5067 106.581 58.6183C108.82 50.2651 103.945 41.4376 95.3375 37.0109C96.424 26.2839 88.2903 15.6233 75.8874 12.2991C65.7484 9.58174 55.6273 12.5362 49.8536 19.0765C47.8381 10.861 40.6982 3.63694 30.884 1.00647C17.3171 -2.6298 3.78136 3.88832 0.651527 15.5657C-2.18163 26.1362 4.4833 37.3101 15.8353 42.0307C14.9531 43.6925 14.2349 45.4971 13.7194 47.4205C10.5896 59.0979 16.0697 70.7138 25.9592 73.3644Z" fill="#312783"/>
</svg>
