<svg width="724" height="189" viewBox="0 0 724 189" fill="none" xmlns="http://www.w3.org/2000/svg">
<path d="M209.905 76.3913C210.987 79.5285 211.578 82.7778 211.676 86.1391C211.873 89.5004 211.725 92.8617 211.233 96.223C210.84 99.5843 210.2 102.89 209.315 106.139C208.429 109.388 207.494 112.469 206.51 115.382C203.952 123.001 200.853 130.452 197.212 137.735C193.572 145.018 189.488 151.853 184.962 158.239C180.928 163.953 176.401 168.995 171.383 173.365C166.365 177.623 160.855 180.984 154.853 183.449C150.72 185.13 146.243 186.362 141.422 187.146C136.699 187.931 131.927 188.155 127.105 187.819C122.382 187.37 117.758 186.25 113.232 184.457C108.804 182.553 104.868 179.751 101.424 176.054C98.3739 172.917 96.1601 169.387 94.7825 165.466C93.405 161.544 92.667 157.511 92.5686 153.365C92.3718 149.108 92.7654 144.794 93.7494 140.424C94.7333 136.054 96.0617 131.797 97.7344 127.651C99.4071 123.506 101.326 119.584 103.491 115.887C105.557 112.077 107.672 108.716 109.837 105.803C114.56 99.6403 119.726 94.0942 125.334 89.1643C131.041 84.1223 137.142 79.7526 143.636 76.0552C149.835 72.4698 156.329 69.5006 163.118 67.1477C169.907 64.7948 176.844 63.4503 183.929 63.1141C185.601 63.0021 187.225 63.0021 188.799 63.1141C190.374 63.1141 191.997 63.2262 193.67 63.4503C197.409 63.8984 200.705 65.1869 203.559 67.3158C206.412 69.4446 208.528 72.4698 209.905 76.3913ZM182.01 87.3155C182.404 86.8674 182.453 86.4192 182.158 85.971C181.961 85.4108 181.567 84.9626 180.977 84.6265C180.387 84.2904 179.649 84.0663 178.763 83.9542C177.976 83.8422 177.238 84.0103 176.549 84.4584C175.959 84.7946 175.221 85.5228 174.335 86.6433C173.548 87.6517 172.712 88.8281 171.826 90.1727C171.039 91.5172 170.301 92.9177 169.612 94.3743C168.923 95.7188 168.481 96.9513 168.284 98.0717C167.989 99.6403 168.185 100.537 168.874 100.761C169.563 100.985 170.055 100.985 170.35 100.761C171.039 100.425 171.777 99.6964 172.564 98.5759C173.45 97.4555 174.286 96.4471 175.073 95.5507C176.057 94.3183 177.09 93.0298 178.173 91.6852C179.353 90.3407 180.633 88.8842 182.01 87.3155Z" fill="#312783"/>
<path d="M317.612 71.1813C319.088 72.7499 320.121 74.5426 320.711 76.5594C321.301 78.4641 321.597 80.5369 321.597 82.7778C321.793 87.3716 321.006 91.9654 319.235 96.5591C317.562 101.153 315.299 105.074 312.446 108.324C311.363 109.556 310.281 110.565 309.199 111.349C308.116 112.133 306.837 112.637 305.361 112.861C303.787 113.086 302.213 113.142 300.638 113.03C299.064 112.805 297.49 112.581 295.915 112.357C291.783 111.573 287.749 110.509 283.813 109.164C279.877 107.82 275.941 106.307 272.005 104.626C271.71 104.29 271.415 104.122 271.12 104.122C268.66 103.114 266.249 102.049 263.888 100.929C261.526 99.8084 259.214 98.688 256.951 97.5675C256.557 97.3434 256.311 97.1193 256.213 96.8953C254.835 96.335 253.901 96.8392 253.409 98.4079C253.31 98.856 253.163 99.3602 252.966 99.9204C251.982 102.385 250.949 104.682 249.866 106.811C249.866 107.035 249.817 107.203 249.719 107.315C249.719 107.427 249.768 107.595 249.866 107.82C243.667 110.06 237.911 113.142 232.598 117.063C227.383 120.873 222.758 125.634 218.724 131.349C218.331 131.909 218.232 132.469 218.429 133.029C218.626 133.59 218.97 134.038 219.462 134.374C220.053 134.71 220.643 134.878 221.233 134.878C221.824 134.878 222.316 134.598 222.709 134.038C225.563 130.004 228.81 126.475 232.45 123.45C236.189 120.312 240.174 117.679 244.405 115.551C248.636 113.422 252.966 111.797 257.394 110.677C261.92 109.444 266.446 108.828 270.972 108.828C274.613 110.397 278.253 111.853 281.894 113.198C285.633 114.43 289.372 115.494 293.111 116.391C294.193 116.615 295.227 116.839 296.211 117.063C297.293 117.175 298.424 117.343 299.605 117.567C299.605 117.567 299.654 117.679 299.753 117.903C303.689 124.962 304.673 132.469 302.705 140.424C301.622 144.458 299.999 148.211 297.834 151.685C295.669 155.158 293.21 158.351 290.454 161.264C287.011 164.85 283.321 167.987 279.385 170.676C275.449 173.253 271.317 175.606 266.987 177.735C262.658 179.976 258.23 181.936 253.704 183.617C249.276 185.298 244.701 186.53 239.978 187.314C234.074 188.211 228.121 188.211 222.119 187.314C216.117 186.306 210.607 183.953 205.588 180.256C204.9 179.695 204.358 179.303 203.965 179.079C203.67 178.743 203.178 178.239 202.489 177.567C201.702 176.782 201.062 176.054 200.57 175.382C200.078 174.597 199.537 173.701 198.947 172.693C197.569 170.34 196.634 167.819 196.142 165.13C195.552 162.329 195.208 159.472 195.109 156.558C195.011 151.516 195.65 146.587 197.028 141.769C198.406 136.951 200.029 132.301 201.899 127.819C204.063 122.217 206.572 116.895 209.426 111.853C212.279 106.811 215.576 102.049 219.315 97.5675C220.003 96.4471 219.954 95.3267 219.167 94.2062C219.069 94.2062 219.019 94.2062 219.019 94.2062C219.019 94.0942 218.97 94.0382 218.872 94.0382C218.675 93.702 218.478 93.4219 218.281 93.1978C218.183 92.8617 218.035 92.5816 217.839 92.3575C216.855 90.7889 216.215 88.8842 215.92 86.6433C215.723 84.1783 216.117 81.7694 217.101 79.4165C218.183 76.9515 219.61 75.0468 221.381 73.7022C223.447 71.9095 225.956 70.621 228.908 69.8367C231.86 69.0524 234.615 68.3802 237.173 67.82C245.734 65.9152 254.343 64.7388 263.002 64.2906C271.759 63.7304 280.467 63.6744 289.126 64.1225C292.57 64.3466 296.014 64.6827 299.458 65.1309C303 65.467 306.493 66.1393 309.937 67.1477C311.314 67.4838 312.643 67.988 313.922 68.6603C315.299 69.2205 316.529 70.0608 317.612 71.1813ZM237.616 136.054C237.419 137.623 237.616 138.519 238.206 138.744C238.895 138.968 239.436 138.968 239.83 138.744C240.42 138.407 241.109 137.735 241.896 136.727C242.782 135.606 243.618 134.598 244.405 133.702C245.389 132.469 246.422 131.237 247.505 130.004C248.587 128.772 249.817 127.371 251.195 125.803C251.588 125.354 251.637 124.85 251.342 124.29C251.145 123.73 250.752 123.282 250.162 122.945C249.571 122.609 248.833 122.441 247.948 122.441C247.16 122.329 246.423 122.497 245.734 122.945C245.242 123.282 244.553 123.954 243.667 124.962C242.88 125.971 242.044 127.147 241.158 128.492C240.371 129.724 239.633 131.069 238.944 132.525C238.256 133.87 237.813 135.046 237.616 136.054Z" fill="#312783"/>
<path d="M407.937 128.66C407.642 134.262 407.051 139.864 406.166 145.466C405.378 150.956 404.099 156.334 402.328 161.6C401.049 165.522 399.376 169.331 397.31 173.029C395.244 176.614 392.636 179.695 389.488 182.272C386.732 184.513 383.682 185.914 380.337 186.474C378.762 186.698 377.09 186.81 375.319 186.81C373.548 186.698 371.924 186.306 370.448 185.634C367.988 184.289 366.069 182.048 364.692 178.911C363.413 175.774 362.429 172.861 361.74 170.172C359.772 162.665 358.985 155.27 359.379 147.987C359.477 146.755 359.575 145.522 359.674 144.29C359.871 142.945 360.166 141.713 360.559 140.592C362.33 137.231 364.151 133.982 366.02 130.844C367.988 127.595 370.202 124.57 372.662 121.769C373.548 120.761 374.482 119.808 375.466 118.912C376.45 118.015 377.582 117.287 378.861 116.727C379.55 116.391 379.894 115.943 379.894 115.382C379.894 114.71 379.697 114.15 379.304 113.702C379.008 113.142 378.566 112.749 377.975 112.525C377.385 112.189 376.795 112.133 376.204 112.357C373.449 113.59 370.989 115.551 368.825 118.24C366.758 120.929 364.889 123.618 363.216 126.307C360.756 129.892 358.493 133.702 356.427 137.735C354.36 141.657 352.343 145.578 350.375 149.5C348.506 153.309 346.636 157.063 344.767 160.76C342.996 164.458 341.126 168.155 339.158 171.852C337.19 175.662 334.829 179.191 332.074 182.441C329.319 185.578 325.875 187.37 321.742 187.819C318.889 188.043 316.134 187.539 313.477 186.306C310.82 185.074 308.508 183.393 306.54 181.264C304.572 179.135 303.096 176.726 302.112 174.037C301.03 171.236 300.341 168.379 300.046 165.466C299.554 160.76 299.751 156.054 300.637 151.348C301.424 146.643 302.506 142.105 303.884 137.735C305.556 132.245 307.426 126.979 309.492 121.937C311.657 116.783 314.166 111.853 317.019 107.147C321.447 99.6403 326.613 92.8057 332.517 86.6433C338.519 80.3688 345.062 75.2148 352.147 71.1813C354.508 69.7247 357.017 68.4362 359.674 67.3158C362.429 66.0833 365.184 65.1309 367.939 64.4587C370.792 63.7864 373.646 63.4503 376.499 63.4503C379.353 63.4503 382.108 63.9545 384.765 64.9629C387.815 66.1953 390.521 67.988 392.882 70.3409C395.244 72.5818 397.261 75.2148 398.934 78.24C400.705 81.1531 402.131 84.3464 403.214 87.8197C404.394 91.181 405.329 94.5424 406.018 97.9037C407.1 102.946 407.74 108.044 407.937 113.198C408.134 118.352 408.134 123.506 407.937 128.66Z" fill="#312783"/>
<path d="M514.668 75.0468C516.636 77.8479 518.062 80.9291 518.948 84.2904C519.932 87.6517 520.473 91.125 520.572 94.7104C520.768 98.1838 520.67 101.713 520.276 105.299C519.883 108.884 519.391 112.301 518.8 115.551C517.423 122.721 515.504 129.724 513.044 136.559C510.683 143.393 507.977 150.06 504.927 156.558C502.959 160.48 500.646 164.458 497.99 168.491C495.333 172.525 492.332 176.11 488.987 179.247C485.74 182.385 482.148 184.849 478.212 186.642C474.276 188.435 470.095 188.995 465.667 188.323C462.912 187.987 460.403 187.034 458.14 185.466C455.975 183.897 454.548 181.544 453.859 178.407C453.269 175.382 453.269 172.301 453.859 169.163C454.548 165.914 455.335 162.833 456.221 159.92C458.189 154.093 460.895 148.379 464.339 142.777C467.782 137.175 471.571 131.517 475.703 125.803C475.9 125.354 476.294 124.682 476.884 123.786C477.278 123.226 477.179 122.777 476.589 122.441C476.097 121.993 475.359 121.713 474.375 121.601C473.489 121.489 472.555 121.545 471.571 121.769C470.587 121.993 469.898 122.385 469.504 122.945C466.651 127.203 463.994 131.573 461.534 136.054C459.074 140.536 456.861 145.13 454.893 149.836C453.909 152.189 452.925 154.822 451.941 157.735C450.957 160.536 450.219 163.393 449.727 166.306C448.153 168.547 446.381 170.788 444.413 173.029C442.446 175.158 440.625 176.838 438.953 178.071C435.509 180.872 431.77 183.337 427.735 185.466C423.8 187.595 419.618 188.659 415.19 188.659C412.632 188.659 410.418 188.155 408.548 187.146C406.58 186.138 405.055 184.289 403.973 181.6C402.497 177.903 401.907 173.925 402.202 169.668C402.497 165.298 403.038 161.152 403.825 157.231C405.793 146.923 408.696 137.007 412.533 127.483C416.469 117.847 421.291 108.884 426.998 100.593C429.753 96.5591 432.704 92.7497 435.853 89.1643C439.002 85.4668 442.396 82.1055 446.037 79.0803C449.678 76.0552 453.466 73.4221 457.402 71.1813C461.436 68.8284 465.618 66.9796 469.947 65.6351C479.295 62.834 488.741 62.5539 498.285 64.7948C501.434 65.467 504.435 66.6435 507.288 68.3242C510.142 69.8928 512.602 72.1336 514.668 75.0468ZM492.972 99.2482C493.365 98.8 493.414 98.3518 493.119 97.9037C492.922 97.3434 492.529 96.8953 491.938 96.5591C491.348 96.223 490.659 96.0549 489.872 96.0549C489.085 95.9429 488.347 96.111 487.658 96.5591C487.166 96.8953 486.478 97.5675 485.592 98.5759C484.805 99.5843 483.968 100.761 483.083 102.105C482.296 103.338 481.558 104.626 480.869 105.971C480.18 107.315 479.737 108.548 479.541 109.668C479.245 111.237 479.442 112.133 480.131 112.357C480.82 112.581 481.312 112.581 481.607 112.357C482.197 111.909 482.886 111.181 483.673 110.172C484.559 109.164 485.395 108.212 486.182 107.315C487.166 106.083 488.199 104.85 489.282 103.618C490.364 102.273 491.594 100.817 492.972 99.2482Z" fill="#312783"/>
<path d="M620.552 113.534C620.06 115.999 619.175 118.24 617.895 120.256C616.715 122.161 615.337 123.898 613.763 125.466C611.008 128.267 608.056 130.732 604.907 132.861C602.152 134.766 599.446 136.447 596.79 137.903C594.231 139.248 591.525 140.592 588.672 141.937C587.786 142.385 586.802 142.833 585.72 143.281C584.736 143.729 583.851 144.122 583.063 144.458C581.686 145.018 580.653 145.466 579.964 145.802C579.374 146.138 578.882 146.531 578.488 146.979C577.996 147.539 577.701 148.211 577.603 148.996C577.603 149.78 577.701 150.284 577.898 150.508C578.193 150.844 578.931 151.236 580.112 151.685C581.292 152.133 582.129 152.469 582.621 152.693C584.687 153.253 586.704 153.813 588.672 154.374C590.64 154.934 592.608 155.662 594.576 156.558C596.15 157.231 597.823 158.183 599.594 159.416C601.463 160.536 602.693 162.161 603.284 164.289C603.972 167.091 603.825 169.948 602.841 172.861C601.857 175.662 600.627 178.127 599.151 180.256C597.282 182.721 595.018 184.737 592.362 186.306C589.705 187.763 586.95 188.323 584.097 187.987C581.833 187.763 579.669 186.922 577.603 185.466C575.635 183.897 573.814 182.328 572.142 180.76C568.599 177.287 565.352 173.533 562.4 169.5C559.449 165.354 556.693 161.152 554.135 156.895C553.938 156.671 553.742 156.39 553.545 156.054C553.446 155.718 553.299 155.438 553.102 155.214C552.61 154.206 551.774 153.757 550.593 153.869C549.511 153.869 548.92 154.542 548.822 155.886C548.822 162.721 547.985 169.5 546.313 176.222C545.821 178.463 545.034 180.704 543.951 182.945C542.967 185.074 541.491 186.586 539.523 187.482C538.048 188.379 536.522 188.715 534.948 188.491C533.374 188.267 531.799 187.931 530.225 187.482C528.454 186.81 526.88 185.746 525.502 184.289C524.125 182.721 522.895 180.984 521.812 179.079C520.238 176.166 519.106 173.029 518.418 169.668C517.631 166.194 517.139 162.777 516.942 159.416C516.647 154.374 516.794 149.388 517.385 144.458C517.975 139.416 518.811 134.486 519.894 129.668C520.976 124.962 522.304 120.592 523.879 116.559C525.453 112.525 527.126 108.268 528.897 103.786C529.684 101.881 530.619 99.6964 531.701 97.2314C532.783 94.6544 533.817 92.5816 534.801 91.013C535.391 90.0046 535.243 89.1082 534.358 88.3239C533.571 87.5396 532.783 87.1475 531.996 87.1475H532.144H531.406C530.914 87.1475 530.176 87.2035 529.192 87.3155C528.306 87.3155 527.47 87.3155 526.683 87.3155C525.601 87.2035 524.518 87.0354 523.436 86.8113C522.452 86.4752 521.468 85.971 520.484 85.2988C519.402 84.5145 518.664 83.5061 518.27 82.2736C517.876 80.9291 517.729 79.5845 517.827 78.24C517.827 76.8955 518.122 75.607 518.713 74.3745C519.205 73.03 519.844 71.9095 520.632 71.0132C522.895 68.3242 525.601 66.4194 528.749 65.299C531.996 64.1785 535.194 63.3942 538.343 62.9461C542.771 62.3858 547.198 62.4979 551.626 63.2822C556.054 63.9545 560.334 65.0749 564.467 66.6435C566.336 67.4278 567.861 68.4362 569.042 69.6687C570.321 70.7891 571.256 72.4698 571.846 74.7106C572.535 76.8395 572.83 79.0803 572.732 81.4333C572.634 83.7862 572.437 86.0831 572.142 88.3239C571.256 94.1502 569.78 99.8084 567.714 105.299C565.647 110.789 563.483 116.167 561.22 121.433C559.94 124.01 558.612 126.643 557.235 129.332C555.956 132.021 554.578 134.654 553.102 137.231C552.905 137.679 552.708 138.071 552.512 138.407C552.413 138.631 552.266 138.912 552.069 139.248C551.872 139.472 551.724 139.752 551.626 140.088C551.528 140.312 551.38 140.592 551.183 140.928C550.79 141.489 550.642 141.993 550.741 142.441C550.937 142.889 551.232 143.225 551.626 143.449C552.118 143.561 552.61 143.561 553.102 143.449C553.594 143.337 554.037 142.945 554.43 142.273C554.922 141.377 555.562 140.312 556.349 139.08C557.136 137.847 557.776 136.783 558.268 135.886C561.023 131.181 563.876 126.643 566.828 122.273C570.862 115.999 575.044 110.34 579.374 105.299C583.703 100.145 588.426 94.9905 593.543 89.8365C595.609 87.7077 597.823 85.6349 600.184 83.6181C602.644 81.4893 605.301 80.2568 608.154 79.9207C610.024 79.6966 611.647 80.1448 613.025 81.2652C614.402 82.2736 615.632 83.5621 616.715 85.1307C619.076 89.1643 620.503 93.758 620.995 98.912C621.487 103.954 621.339 108.828 620.552 113.534Z" fill="#312783"/>
<path d="M644.512 143.281C643.823 142.833 643.036 142.721 642.15 142.945C641.265 143.057 640.428 143.337 639.641 143.786C638.952 144.234 638.46 144.738 638.165 145.298C637.968 145.858 638.214 146.363 638.903 146.811C643.036 150.172 647.267 152.469 651.596 153.701C655.926 154.934 660.255 155.438 664.584 155.214C669.012 154.99 673.292 154.206 677.425 152.861C681.558 151.517 685.493 150.004 689.232 148.323C690.708 147.539 692.086 146.755 693.365 145.97C694.743 145.186 696.12 144.346 697.498 143.449C697.99 143.785 698.432 143.898 698.826 143.786C698.137 143.898 698.039 143.954 698.531 143.954C699.023 143.954 699.318 143.954 699.416 143.954C700.597 143.954 701.63 144.178 702.516 144.626C703.893 145.074 705.123 145.746 706.206 146.643C707.386 147.427 708.37 148.491 709.157 149.836C710.24 152.189 710.683 154.71 710.486 157.399C710.387 160.088 709.797 162.553 708.715 164.794C707.239 168.043 705.172 170.9 702.516 173.365C699.958 175.718 697.252 177.679 694.398 179.247C689.872 181.824 685.149 183.785 680.229 185.13C675.408 186.474 670.537 187.482 665.618 188.155C662.075 188.603 658.435 188.771 654.696 188.659C651.055 188.547 647.464 188.099 643.921 187.314C640.477 186.418 637.083 185.13 633.737 183.449C630.49 181.768 627.489 179.583 624.734 176.894C622.766 174.878 620.897 172.693 619.126 170.34C617.355 167.875 615.928 165.298 614.845 162.609C613.763 160.032 613.025 157.399 612.632 154.71C612.238 152.021 611.992 149.22 611.894 146.306C611.894 139.136 613.074 132.189 615.436 125.466C617.797 118.632 620.798 112.357 624.439 106.643C629.654 98.5759 635.853 91.5732 643.036 85.6349C650.219 79.6966 657.844 74.7667 665.913 70.8451C669.258 69.1645 672.8 67.6519 676.539 66.3074C680.278 64.8508 684.067 63.8424 687.904 63.2822C691.84 62.6099 695.727 62.4419 699.564 62.778C703.401 63.1141 707.091 64.1785 710.633 65.9712C712.995 67.2037 715.16 68.7723 717.127 70.6771C719.095 72.5818 720.621 74.8227 721.703 77.3997C722.982 80.3128 723.72 83.45 723.917 86.8113C724.114 90.0606 723.917 93.3099 723.326 96.5591C721.85 105.299 718.702 113.198 713.88 120.256C709.059 127.203 703.401 133.029 696.907 137.735C693.857 139.976 690.561 141.993 687.019 143.786C683.575 145.466 679.983 146.811 676.244 147.819C672.505 148.715 668.717 149.22 664.88 149.332C661.141 149.332 657.451 148.827 653.81 147.819C652.137 147.259 650.514 146.587 648.939 145.802C647.365 145.018 645.889 144.178 644.512 143.281ZM663.404 108.492C663.108 110.06 663.305 110.957 663.994 111.181C664.683 111.405 665.224 111.405 665.618 111.181C666.11 110.733 666.749 110.004 667.536 108.996C668.422 107.988 669.258 107.035 670.045 106.139C671.128 104.906 672.21 103.674 673.292 102.441C674.375 101.097 675.605 99.6403 676.982 98.0717C677.376 97.6235 677.425 97.1193 677.13 96.5591C676.933 95.9989 676.539 95.5507 675.949 95.2146C675.359 94.8785 674.67 94.7104 673.883 94.7104C673.096 94.5984 672.358 94.7664 671.669 95.2146C671.078 95.5507 670.34 96.223 669.455 97.2314C668.668 98.2398 667.831 99.4162 666.946 100.761C666.159 101.993 665.421 103.338 664.732 104.794C664.043 106.139 663.6 107.371 663.404 108.492Z" fill="#312783"/>
<path d="M104.426 48.7543C104.426 50.1509 98.9123 52.4997 87.8849 55.8008C76.9689 59.1019 68.8933 60.7524 63.6581 60.7524C57.8659 60.7524 52.7978 59.7367 48.4537 57.7053C44.2209 55.6738 42.1046 53.5789 42.1046 51.4205C42.1046 46.7229 44.388 41.3904 48.9549 35.423C46.7272 33.6455 43.8868 32.7568 40.4338 32.7568C34.3074 32.7568 27.6242 34.9787 20.384 39.4224C18.1562 40.819 15.2044 44.0566 11.5286 49.1352C8.52116 53.325 6.01494 55.4199 4.00996 55.4199C1.33665 55.4199 0 54.0868 0 51.4205C0 47.9925 8.40977 37.391 25.2293 19.616C29.2393 15.2992 34.029 10.9824 39.5983 6.66562C45.1677 2.22187 48.5651 0 49.7903 0C50.4586 0 51.1827 0.507858 51.9624 1.52357C52.7421 2.53929 53.132 3.555 53.132 4.57072C53.132 5.07857 49.6789 8.06223 42.7729 13.5217C37.6491 17.5846 33.8619 21.6474 31.4113 25.7103C32.3024 25.8372 34.6973 25.5833 38.5959 24.9485C42.4944 24.3137 45.4462 24.0597 47.4512 24.1867C51.0156 24.5676 53.7446 26.0277 55.6382 28.567C58.4229 25.9007 62.6556 22.0283 68.3364 16.9497C75.9107 10.8554 80.7561 7.8083 82.8725 7.8083C84.0977 7.8083 85.2116 8.37964 86.2141 9.52232C87.328 10.538 87.8849 11.6172 87.8849 12.7599C87.8849 16.061 83.9864 20.7587 76.1892 26.8529C70.1743 31.5506 64.8277 35.1056 60.1494 37.5179C54.3572 43.6122 51.4611 47.3577 51.4611 48.7543C51.4611 50.1509 52.6864 51.4205 55.1369 52.5632C57.5875 53.5789 60.4278 54.0868 63.6581 54.0868C69.8958 54.0868 77.7486 52.6902 87.2166 49.897C96.6846 47.1037 101.084 45.7071 100.416 45.7071C103.089 45.7071 104.426 46.7229 104.426 48.7543Z" fill="#312783"/>
<path d="M198.903 33.709C198.903 35.7404 192.052 40.1842 178.352 47.0403C168.55 51.9919 159.082 54.4677 149.948 54.4677C147.163 54.4677 144.991 53.2615 143.432 50.8492C142.429 48.6908 141.427 46.5324 140.424 44.374C128.729 53.6424 117.813 58.2766 107.676 58.2766C104 58.2766 101.104 57.1974 98.988 55.039C96.8717 52.8806 95.8135 50.2144 95.8135 47.0403C95.8135 39.9303 99.9348 33.3916 108.178 27.4243C117.311 20.9491 128.729 17.7115 142.429 17.7115C147.664 17.7115 151.619 19.7429 154.292 23.8058C156.297 22.2822 158.525 21.5204 160.975 21.5204C162.758 21.5204 163.649 23.3614 163.649 27.0434C163.649 27.9321 161.644 30.154 157.634 33.709C153.624 37.1371 151.619 39.9303 151.619 42.0887C151.619 45.3897 152.51 47.0403 154.292 47.0403C161.866 47.0403 169.162 45.1358 176.18 41.3269C188.098 34.8517 194.837 31.6141 196.397 31.6141C198.067 31.6141 198.903 32.3124 198.903 33.709ZM142.429 28.9479C142.652 27.6782 141.427 27.0434 138.753 27.0434C133.407 27.0434 126.779 29.0113 118.871 32.9472C109.848 37.5179 105.337 42.2156 105.337 47.0403C105.337 48.9447 106.117 50.0239 107.676 50.2779C111.686 51.0396 117.98 49.2621 126.556 44.9454C136.024 40.1207 141.315 34.7882 142.429 28.9479Z" fill="#312783"/>
</svg>
