<svg width="2944" height="731" viewBox="0 0 2944 731" fill="none" xmlns="http://www.w3.org/2000/svg">
<path d="M576.371 230L576.371 529.756L610.039 563.425" stroke="#312783" stroke-width="16.0589" stroke-dasharray="53.53 33.46"/>
<path d="M235.367 230L235.367 529.756L269.035 563.425" stroke="#312783" stroke-width="16.0589" stroke-dasharray="53.53 33.46"/>
<path d="M462.703 160L462.703 459.756L496.371 493.425" stroke="#312783" stroke-width="16.0589" stroke-dasharray="53.53 33.46"/>
<path d="M121.699 160L121.699 459.756L155.367 493.425" stroke="#312783" stroke-width="16.0589" stroke-dasharray="53.53 33.46"/>
<path d="M349.035 312L349.035 611.756L382.703 645.425" stroke="#312783" stroke-width="16.0589" stroke-dasharray="53.53 33.46"/>
<path d="M8.03091 244L8.0309 543.756L41.6992 577.425" stroke="#312783" stroke-width="16.0589" stroke-dasharray="53.53 33.46"/>
<path d="M1330.04 -2.44784e-06L1330.04 493.564L1386.04 549" stroke="#312783" stroke-width="16.0589" stroke-dasharray="53.53 33.46"/>
<path d="M1000.37 250L1000.37 549.756L1034.04 583.425" stroke="#312783" stroke-width="16.0589" stroke-dasharray="53.53 33.46"/>
<path d="M1227.71 180L1227.71 479.756L1261.38 513.425" stroke="#312783" stroke-width="16.0589" stroke-dasharray="53.53 33.46"/>
<path d="M886.707 180L886.707 479.756L920.375 513.425" stroke="#312783" stroke-width="16.0589" stroke-dasharray="53.53 33.46"/>
<path d="M1109.04 229L1109.04 620.974L1153.04 665" stroke="#312783" stroke-width="16.0589" stroke-dasharray="53.53 33.46"/>
<path d="M762.039 40L762.039 571.322L818.039 631" stroke="#312783" stroke-width="16.0589" stroke-dasharray="53.53 33.46"/>
<path d="M2106.04 30L2106.04 523.564L2162.04 579" stroke="#312783" stroke-width="16.0589" stroke-dasharray="53.53 33.46"/>
<path d="M1776.37 280L1776.37 579.756L1810.04 613.425" stroke="#312783" stroke-width="16.0589" stroke-dasharray="53.53 33.46"/>
<path d="M2003.71 210L2003.71 509.756L2037.38 543.425" stroke="#312783" stroke-width="16.0589" stroke-dasharray="53.53 33.46"/>
<path d="M1662.71 210L1662.71 509.756L1696.37 543.425" stroke="#312783" stroke-width="16.0589" stroke-dasharray="53.53 33.46"/>
<path d="M1885.04 259L1885.04 650.974L1929.04 695" stroke="#312783" stroke-width="16.0589" stroke-dasharray="53.53 33.46"/>
<path d="M1538.04 70L1538.04 601.322L1594.04 661" stroke="#312783" stroke-width="16.0589" stroke-dasharray="53.53 33.46"/>
<path d="M2882.04 60L2882.04 553.564L2938.04 609" stroke="#312783" stroke-width="16.0589" stroke-dasharray="53.53 33.46"/>
<path d="M2552.37 310L2552.37 609.756L2586.04 643.425" stroke="#312783" stroke-width="16.0589" stroke-dasharray="53.53 33.46"/>
<path d="M2779.71 240L2779.71 539.756L2813.38 573.425" stroke="#312783" stroke-width="16.0589" stroke-dasharray="53.53 33.46"/>
<path d="M2438.71 240L2438.71 539.756L2472.37 573.425" stroke="#312783" stroke-width="16.0589" stroke-dasharray="53.53 33.46"/>
<path d="M2661.04 289L2661.04 680.974L2705.04 725" stroke="#312783" stroke-width="16.0589" stroke-dasharray="53.53 33.46"/>
<path d="M2314.04 100L2314.04 631.322L2370.04 691" stroke="#312783" stroke-width="16.0589" stroke-dasharray="53.53 33.46"/>
</svg>
