<svg width="732" height="435" viewBox="0 0 732 435" fill="none" xmlns="http://www.w3.org/2000/svg">
<mask id="path-1-inside-1_264_925" fill="white">
<path d="M456.91 0.0654297C495.515 -1.42072 526.51 22.4397 536.729 57.3125C554.965 49.4992 575.453 44.4204 596.957 43.0117C669.014 38.2915 725.195 76.569 722.441 128.507C721.757 141.408 717.499 153.938 710.383 165.559C724.874 181.87 732.808 204.577 730.823 230.021C726.775 281.917 683 325.546 633.049 327.469C618.467 328.03 604.971 324.974 593.271 319.075C590.742 324.276 587.082 328.998 582.359 332.776C566.298 345.628 544.06 342.715 532.689 326.269C529.612 321.818 527.648 316.831 526.735 311.671C518.071 317.096 508.66 321.223 498.798 323.759C499.038 328.013 498.994 332.369 498.647 336.81C494.599 388.705 450.824 432.334 400.873 434.257C369.514 435.464 343.177 419.947 328.917 395.388C316.554 398.005 303.631 399.647 290.384 400.157C226.656 402.611 174.583 378.162 157.871 342.001C141.743 354.592 122.231 362.451 101.671 363.242C51.7202 365.165 14.5093 324.655 18.5576 272.76C19.9855 254.456 26.3549 237.181 36.1943 222.401C-1.49788 182.426 -11.6985 128.097 14.8662 90.8506C42.09 52.6805 98.9993 44.9668 150.255 69.4287C151.729 59.7067 156.714 50.4168 164.838 43.916C180.899 31.0644 203.137 33.9779 214.508 50.4238C215.186 51.4052 215.809 52.4138 216.38 53.4434C233.614 37.696 255.643 27.6571 279.025 26.7568C319.461 25.2 351.547 51.4513 360.156 89.0381C368.013 40.9484 409.704 1.8829 456.91 0.0654297Z"/>
</mask>
<path d="M456.91 0.0654297C495.515 -1.42072 526.51 22.4397 536.729 57.3125C554.965 49.4992 575.453 44.4204 596.957 43.0117C669.014 38.2915 725.195 76.569 722.441 128.507C721.757 141.408 717.499 153.938 710.383 165.559C724.874 181.87 732.808 204.577 730.823 230.021C726.775 281.917 683 325.546 633.049 327.469C618.467 328.03 604.971 324.974 593.271 319.075C590.742 324.276 587.082 328.998 582.359 332.776C566.298 345.628 544.06 342.715 532.689 326.269C529.612 321.818 527.648 316.831 526.735 311.671C518.071 317.096 508.66 321.223 498.798 323.759C499.038 328.013 498.994 332.369 498.647 336.81C494.599 388.705 450.824 432.334 400.873 434.257C369.514 435.464 343.177 419.947 328.917 395.388C316.554 398.005 303.631 399.647 290.384 400.157C226.656 402.611 174.583 378.162 157.871 342.001C141.743 354.592 122.231 362.451 101.671 363.242C51.7202 365.165 14.5093 324.655 18.5576 272.76C19.9855 254.456 26.3549 237.181 36.1943 222.401C-1.49788 182.426 -11.6985 128.097 14.8662 90.8506C42.09 52.6805 98.9993 44.9668 150.255 69.4287C151.729 59.7067 156.714 50.4168 164.838 43.916C180.899 31.0644 203.137 33.9779 214.508 50.4238C215.186 51.4052 215.809 52.4138 216.38 53.4434C233.614 37.696 255.643 27.6571 279.025 26.7568C319.461 25.2 351.547 51.4513 360.156 89.0381C368.013 40.9484 409.704 1.8829 456.91 0.0654297Z" fill="#312783"/>
<path d="M456.91 0.0654297L456.344 -14.6444L456.344 -14.6444L456.91 0.0654297ZM536.729 57.3125L522.603 61.4524L527.271 77.3802L542.527 70.8435L536.729 57.3125ZM596.957 43.0117L595.995 28.3225L595.995 28.3225L596.957 43.0117ZM722.441 128.507L737.141 129.286L737.141 129.286L722.441 128.507ZM710.383 165.559L697.829 157.871L692.13 167.177L699.378 175.336L710.383 165.559ZM730.823 230.021L745.499 231.166L745.499 231.166L730.823 230.021ZM633.049 327.469L633.615 342.179L633.615 342.179L633.049 327.469ZM593.271 319.075L599.897 305.93L586.562 299.208L580.032 312.638L593.271 319.075ZM582.359 332.776L591.557 344.27L591.557 344.27L582.359 332.776ZM532.689 326.269L520.581 334.64L520.581 334.64L532.689 326.269ZM526.735 311.671L541.231 309.108L537.43 287.608L518.924 299.194L526.735 311.671ZM498.798 323.759L495.132 309.502L483.42 312.514L484.1 324.587L498.798 323.759ZM498.647 336.81L513.324 337.955L513.324 337.954L498.647 336.81ZM400.873 434.257L401.439 448.967L401.439 448.967L400.873 434.257ZM328.917 395.388L341.647 387.996L336.295 378.778L325.868 380.986L328.917 395.388ZM290.384 400.157L290.95 414.867L290.95 414.867L290.384 400.157ZM157.871 342.001L171.234 335.825L163.446 318.973L148.812 330.398L157.871 342.001ZM101.671 363.242L102.237 377.952L102.237 377.952L101.671 363.242ZM18.5576 272.76L3.88151 271.615L3.88151 271.615L18.5576 272.76ZM36.1943 222.401L48.4479 230.559L54.9334 220.817L46.9047 212.303L36.1943 222.401ZM14.8662 90.8506L2.88146 82.3028L2.88143 82.3028L14.8662 90.8506ZM150.255 69.4287L143.914 82.714L161.834 91.2659L164.809 71.6349L150.255 69.4287ZM164.838 43.916L155.641 32.4221L155.641 32.4222L164.838 43.916ZM214.508 50.4238L226.616 42.0521L226.616 42.0521L214.508 50.4238ZM216.38 53.4434L203.507 60.584L212.549 76.8842L226.31 64.3107L216.38 53.4434ZM279.025 26.7568L278.459 12.047L278.459 12.047L279.025 26.7568ZM360.156 89.0381L345.807 92.3249L374.684 91.4116L360.156 89.0381ZM456.91 0.0654297L457.476 14.7752C489.137 13.5564 514.223 32.8562 522.603 61.4524L536.729 57.3125L550.856 53.1726C538.797 12.0233 501.893 -16.3978 456.344 -14.6444L456.91 0.0654297ZM536.729 57.3125L542.527 70.8435C559.238 63.6834 578.092 58.9998 597.919 57.7009L596.957 43.0117L595.995 28.3225C572.815 29.841 550.693 35.3149 530.932 43.7815L536.729 57.3125ZM596.957 43.0117L597.919 57.7009C631.265 55.5165 659.928 63.367 679.465 76.6779C698.829 89.8712 708.792 107.908 707.741 127.727L722.441 128.507L737.141 129.286C738.844 97.1677 722.094 70.0969 696.042 52.347C670.162 34.7149 634.706 25.7867 595.995 28.3225L596.957 43.0117ZM722.441 128.507L707.741 127.727C707.204 137.857 703.849 148.041 697.829 157.871L710.383 165.559L722.937 173.246C731.149 159.835 736.31 144.96 737.141 129.286L722.441 128.507ZM710.383 165.559L699.378 175.336C711.078 188.505 717.837 207.214 716.147 228.877L730.823 230.021L745.499 231.166C747.779 201.939 738.67 175.234 721.388 155.782L710.383 165.559ZM730.823 230.021L716.147 228.877C712.642 273.802 674.502 311.141 632.482 312.759L633.049 327.469L633.615 342.179C691.498 339.95 740.907 290.032 745.499 231.166L730.823 230.021ZM633.049 327.469L632.483 312.759C620.341 313.226 609.326 310.684 599.897 305.93L593.271 319.075L586.644 332.22C600.617 339.264 616.593 342.834 633.615 342.179L633.049 327.469ZM593.271 319.075L580.032 312.638C578.413 315.967 576.1 318.932 573.162 321.283L582.359 332.776L591.557 344.27C598.063 339.064 603.07 332.585 606.509 325.512L593.271 319.075ZM582.359 332.776L573.162 321.282C563.421 329.077 551.067 326.964 544.798 317.897L532.689 326.269L520.581 334.64C537.053 358.465 569.176 362.179 591.557 344.27L582.359 332.776ZM532.689 326.269L544.798 317.897C542.989 315.281 541.795 312.298 541.231 309.108L526.735 311.671L512.239 314.234C513.5 321.365 516.235 328.354 520.581 334.64L532.689 326.269ZM526.735 311.671L518.924 299.194C511.472 303.859 503.451 307.363 495.132 309.502L498.798 323.759L502.464 338.016C513.868 335.083 524.669 330.332 534.547 324.148L526.735 311.671ZM498.798 323.759L484.1 324.587C484.303 328.176 484.267 331.874 483.971 335.665L498.647 336.81L513.324 337.954C513.721 332.865 513.773 327.849 513.495 322.93L498.798 323.759ZM498.647 336.81L483.971 335.665C480.467 380.59 442.326 417.929 400.307 419.547L400.873 434.257L401.439 448.967C459.322 446.738 508.731 396.82 513.324 337.955L498.647 336.81ZM400.873 434.257L400.307 419.547C374.444 420.543 353.197 407.887 341.647 387.996L328.917 395.388L316.187 402.779C333.157 432.006 364.584 450.386 401.439 448.967L400.873 434.257ZM328.917 395.388L325.868 380.986C314.315 383.432 302.222 384.97 289.817 385.447L290.384 400.157L290.95 414.867C305.04 414.325 318.794 412.578 331.966 409.789L328.917 395.388ZM290.384 400.157L289.817 385.447C259.906 386.599 233.251 381.405 212.509 372.123C191.642 362.784 177.68 349.773 171.234 335.825L157.871 342.001L144.508 348.176C154.774 370.389 175.204 387.683 200.483 398.996C225.888 410.365 257.134 416.169 290.95 414.867L290.384 400.157ZM157.871 342.001L148.812 330.398C134.848 341.299 118.251 347.872 101.105 348.532L101.671 363.242L102.237 377.952C126.211 377.029 148.638 367.884 166.93 353.604L157.871 342.001ZM101.671 363.242L101.105 348.532C60.6185 350.091 29.8176 317.695 33.2337 273.905L18.5576 272.76L3.88151 271.615C-0.799051 331.614 42.8219 380.24 102.237 377.952L101.671 363.242ZM18.5576 272.76L33.2337 273.905C34.453 258.276 39.9048 243.391 48.4479 230.559L36.1943 222.401L23.9408 214.244C12.8049 230.97 5.51807 250.637 3.88151 271.615L18.5576 272.76ZM36.1943 222.401L46.9047 212.303C12.1931 175.489 5.74782 128.987 26.851 99.3983L14.8662 90.8506L2.88143 82.3028C-29.1449 127.207 -15.1889 189.364 25.4839 232.5L36.1943 222.401ZM14.8662 90.8506L26.851 99.3984C48.4947 69.0519 96.5937 60.1299 143.914 82.714L150.255 69.4287L156.595 56.1435C101.405 29.8037 35.6852 36.3091 2.88146 82.3028L14.8662 90.8506ZM150.255 69.4287L164.809 71.6349C165.763 65.3402 168.979 59.4558 174.035 55.4098L164.838 43.916L155.641 32.4222C144.449 41.3778 137.694 54.0731 135.7 67.2225L150.255 69.4287ZM164.838 43.916L174.035 55.4099C183.777 47.615 196.13 49.728 202.399 58.7956L214.508 50.4238L226.616 42.0521C210.144 18.2278 178.021 14.5139 155.641 32.4221L164.838 43.916ZM214.508 50.4238L202.399 58.7955C202.79 59.3599 203.159 59.956 203.507 60.584L216.38 53.4434L229.253 46.3027C228.459 44.8717 227.583 43.4505 226.616 42.0521L214.508 50.4238ZM216.38 53.4434L226.31 64.3107C241.289 50.6235 260.09 42.2175 279.592 41.4666L279.025 26.7568L278.459 12.047C251.197 13.0967 225.939 24.7684 206.45 42.576L216.38 53.4434ZM279.025 26.7568L279.592 41.4666C312.701 40.1919 338.72 61.3837 345.807 92.3249L360.156 89.0381L374.505 85.7513C364.374 41.5189 326.221 10.2082 278.459 12.047L279.025 26.7568ZM360.156 89.0381L374.684 91.4116C381.506 49.655 417.832 16.3016 457.476 14.7752L456.91 0.0654297L456.344 -14.6444C401.576 -12.5358 354.519 32.2418 345.628 86.6646L360.156 89.0381Z" fill="#312783" mask="url(#path-1-inside-1_264_925)"/>
</svg>
